<svg width="16" height="16" viewBox="0 0 16 16" fill="none" xmlns="http://www.w3.org/2000/svg">
<path fill-rule="evenodd" clip-rule="evenodd" d="M0.26721 7.81955C0.643013 7.41484 1.27574 7.3914 1.68045 7.76721L7 12.7068L7 1C7 0.447714 7.44772 -3.2555e-07 8 -3.49691e-07C8.55229 -3.73832e-07 9 0.447714 9 1L9 12.7068L14.3196 7.76721C14.7243 7.3914 15.357 7.41484 15.7328 7.81955C16.1086 8.22426 16.0852 8.85699 15.6805 9.23279L8.68046 15.7328C8.29677 16.0891 7.70323 16.0891 7.31955 15.7328L0.319553 9.23279C-0.0851578 8.85699 -0.108592 8.22426 0.26721 7.81955Z" fill="#201230"/>
</svg>
