<svg width="74" height="45" viewBox="0 0 74 45" fill="none" xmlns="http://www.w3.org/2000/svg">
<path d="M21.0919 16.3432C21.0919 17.2692 21.1894 18.02 21.36 18.5706C21.555 19.1212 21.7987 19.7219 22.14 20.3726C22.2618 20.5729 22.3106 20.7731 22.3106 20.9483C22.3106 21.1986 22.1643 21.4488 21.8475 21.6991L20.3119 22.7503C20.0925 22.9004 19.8732 22.9755 19.6782 22.9755C19.4344 22.9755 19.1907 22.8504 18.947 22.6251C18.6057 22.2497 18.3132 21.8493 18.0695 21.4488C17.8257 21.0234 17.582 20.5478 17.3139 19.9722C15.4127 22.2748 13.0241 23.426 10.1479 23.426C8.1005 23.426 6.46743 22.8254 5.2731 21.624C4.07878 20.4227 3.46942 18.8209 3.46942 16.8187C3.46942 14.6913 4.20065 12.9644 5.68746 11.663C7.17428 10.3615 9.14858 9.71079 11.6591 9.71079C12.4878 9.71079 13.3409 9.78587 14.2428 9.91101C15.1446 10.0362 16.0708 10.2364 17.0458 10.4616V8.63459C17.0458 6.73248 16.6558 5.40601 15.9002 4.63014C15.1202 3.85428 13.804 3.47887 11.9272 3.47887C11.0741 3.47887 10.1967 3.57898 9.29482 3.80423C8.39298 4.02948 7.51552 4.30478 6.66243 4.65517C6.27244 4.83037 5.97995 4.93048 5.80933 4.98053C5.63872 5.03059 5.51684 5.05562 5.41935 5.05562C5.07811 5.05562 4.90749 4.80534 4.90749 4.27976V3.05339C4.90749 2.65295 4.95624 2.35261 5.07811 2.17742C5.19998 2.00222 5.41935 1.82703 5.76059 1.65184C6.61368 1.20133 7.63739 0.825918 8.83172 0.525584C10.026 0.200222 11.2935 0.0500556 12.6341 0.0500556C15.5346 0.0500556 17.6551 0.725806 19.0201 2.07731C20.3606 3.42881 21.0431 5.48109 21.0431 8.23415V16.3432H21.0919ZM11.196 20.1474C12.0003 20.1474 12.8291 19.9972 13.7065 19.6969C14.584 19.3966 15.364 18.8459 16.0221 18.0951C16.412 17.6196 16.7045 17.094 16.8508 16.4933C16.997 15.8927 17.0945 15.1669 17.0945 14.3159V13.2647C16.3877 13.0895 15.6321 12.9394 14.8521 12.8393C14.0721 12.7392 13.3165 12.6891 12.5609 12.6891C10.9279 12.6891 9.73356 13.0145 8.92921 13.6902C8.12487 14.366 7.73488 15.317 7.73488 16.5684C7.73488 17.7447 8.02737 18.6207 8.63672 19.2214C9.2217 19.8471 10.0748 20.1474 11.196 20.1474ZM30.7684 22.8504C30.3296 22.8504 30.0372 22.7753 29.8422 22.6001C29.6472 22.4499 29.4765 22.0996 29.3303 21.624L23.6024 2.27753C23.4562 1.77697 23.383 1.45161 23.383 1.27642C23.383 0.875973 23.578 0.650723 23.968 0.650723H26.3567C26.8198 0.650723 27.1366 0.725806 27.3073 0.901001C27.5022 1.05117 27.6485 1.40156 27.7947 1.87709L31.8896 18.4455L35.6919 1.87709C35.8138 1.37653 35.96 1.05117 36.155 0.901001C36.35 0.750834 36.6913 0.650723 37.13 0.650723H39.0799C39.543 0.650723 39.8599 0.725806 40.0549 0.901001C40.2499 1.05117 40.4205 1.40156 40.518 1.87709L44.3691 18.6457L48.5858 1.87709C48.732 1.37653 48.9027 1.05117 49.0733 0.901001C49.2683 0.750834 49.5851 0.650723 50.0239 0.650723H52.2907C52.6807 0.650723 52.9 0.850945 52.9 1.27642C52.9 1.40156 52.8756 1.5267 52.8513 1.67686C52.8269 1.82703 52.7781 2.02725 52.6807 2.30256L46.8065 21.6491C46.6603 22.1496 46.4896 22.475 46.2946 22.6251C46.0997 22.7753 45.7828 22.8754 45.3684 22.8754H43.2723C42.8092 22.8754 42.4923 22.8003 42.2973 22.6251C42.1023 22.4499 41.9317 22.1246 41.8342 21.624L38.0562 5.48109L34.3026 21.599C34.1807 22.0996 34.0345 22.4249 33.8395 22.6001C33.6445 22.7753 33.3033 22.8504 32.8645 22.8504H30.7684ZM62.089 23.5261C60.8216 23.5261 59.5541 23.376 58.3354 23.0756C57.1167 22.7753 56.1661 22.4499 55.5324 22.0745C55.1424 21.8493 54.8743 21.599 54.7768 21.3737C54.6793 21.1485 54.6306 20.8982 54.6306 20.673V19.3966C54.6306 18.871 54.8256 18.6207 55.1912 18.6207C55.3374 18.6207 55.4837 18.6457 55.6299 18.6958C55.7762 18.7458 55.9955 18.8459 56.2393 18.9461C57.068 19.3215 57.9698 19.6218 58.9204 19.822C59.8954 20.0222 60.846 20.1224 61.8209 20.1224C63.3565 20.1224 64.5508 19.8471 65.3795 19.2964C66.2083 18.7458 66.647 17.9449 66.647 16.9188C66.647 16.218 66.4276 15.6424 65.9889 15.1669C65.5502 14.6913 64.7214 14.2659 63.5271 13.8654L59.9929 12.7392C58.2136 12.1635 56.8974 11.3126 56.093 10.1863C55.2887 9.08509 54.8743 7.85873 54.8743 6.55729C54.8743 5.50612 55.0937 4.58009 55.5324 3.7792C55.9711 2.97831 56.5561 2.27753 57.2873 1.72692C58.0186 1.15128 58.8473 0.725806 59.8222 0.425473C60.7972 0.125139 61.8209 0 62.8934 0C63.4296 0 63.9902 0.0250278 64.5264 0.100111C65.0871 0.175195 65.5989 0.275306 66.1108 0.375417C66.5982 0.500556 67.0613 0.625695 67.5001 0.775862C67.9388 0.926029 68.28 1.0762 68.5238 1.22636C68.865 1.42659 69.1088 1.62681 69.255 1.85206C69.4013 2.05228 69.4744 2.32759 69.4744 2.67798V3.85428C69.4744 4.37987 69.2794 4.65517 68.9138 4.65517C68.7188 4.65517 68.4019 4.55506 67.9876 4.35484C66.5982 3.70412 65.0383 3.37875 63.3077 3.37875C61.9184 3.37875 60.8216 3.604 60.066 4.07953C59.3104 4.55506 58.9204 5.28087 58.9204 6.30701C58.9204 7.00779 59.1642 7.60845 59.6516 8.08398C60.1391 8.55951 61.041 9.03504 62.3328 9.46051L65.7939 10.5868C67.5488 11.1624 68.8163 11.9633 69.5719 12.9894C70.3275 14.0156 70.6931 15.1919 70.6931 16.4933C70.6931 17.5695 70.4737 18.5456 70.0594 19.3966C69.6206 20.2475 69.0356 20.9983 68.28 21.599C67.5245 22.2247 66.6226 22.6752 65.5745 23.0006C64.4777 23.3509 63.3321 23.5261 62.089 23.5261Z" fill="#201230"/>
<path fill-rule="evenodd" clip-rule="evenodd" d="M66.6957 35.6897C58.6766 41.7714 47.0258 45 37.0081 45C22.9686 45 10.3185 39.6691 0.763876 30.8092C0.00827981 30.1085 0.690753 29.1574 1.59259 29.708C11.9272 35.8649 24.6748 39.594 37.8612 39.594C46.7577 39.594 56.5317 37.6919 65.5258 33.7875C66.8663 33.1619 68.0119 34.6885 66.6957 35.6897Z" fill="#201230"/>
<path fill-rule="evenodd" clip-rule="evenodd" d="M70.0349 31.7852C69.0112 30.4337 63.259 31.1345 60.6509 31.4598C59.871 31.56 59.7491 30.8592 60.4559 30.3336C65.0383 27.0299 72.5699 27.981 73.4473 29.0822C74.3248 30.2085 73.2036 37.942 68.9137 41.6462C68.2556 42.2218 67.6219 41.9215 67.9144 41.1706C68.8894 38.6929 71.0587 33.1117 70.0349 31.7852Z" fill="#201230"/>
</svg>
