<svg width="32" height="33" viewBox="0 0 32 33" fill="none" xmlns="http://www.w3.org/2000/svg">
<path d="M16.1426 30.7685C24.1054 30.7685 30.5606 24.3133 30.5606 16.3505C30.5606 8.38765 24.1054 1.9325 16.1426 1.9325C8.17977 1.9325 1.72461 8.38765 1.72461 16.3505C1.72461 24.3133 8.17977 30.7685 16.1426 30.7685Z" fill="white"/>
<path d="M15.9705 0.349976C20.446 0.349976 24.2565 1.91248 27.399 5.03598C28.903 6.54048 30.0465 8.25998 30.8275 10.193C31.608 12.1265 31.9995 14.1785 31.9995 16.35C31.9995 18.5405 31.613 20.593 30.8425 22.5065C30.071 24.4205 28.9325 26.1115 27.4285 27.578C25.867 29.1205 24.0955 30.302 22.114 31.121C20.1335 31.94 18.0855 32.3495 15.9715 32.3495C13.8575 32.3495 11.8335 31.9455 9.9 31.135C7.967 30.326 6.2335 29.1545 4.7 27.6215C3.1665 26.0885 2 24.3595 1.2 22.4355C0.4 20.5115 0 18.4835 0 16.35C0 14.2355 0.4045 12.2025 1.214 10.25C2.0235 8.29748 3.2 6.54998 4.7425 5.00698C7.79 1.90298 11.5325 0.349976 15.9705 0.349976ZM16.0285 3.23598C12.3715 3.23598 9.295 4.51248 6.7995 7.06448C5.542 8.34098 4.5755 9.77398 3.8995 11.3645C3.2225 12.955 2.885 14.617 2.885 16.3505C2.885 18.065 3.2225 19.7175 3.8995 21.307C4.576 22.8985 5.542 24.3175 6.7995 25.565C8.0565 26.813 9.475 27.7645 11.057 28.4225C12.6375 29.0795 14.295 29.408 16.0285 29.408C17.7425 29.408 19.4035 29.0755 21.015 28.4085C22.6245 27.741 24.0755 26.78 25.3715 25.523C27.8665 23.085 29.1135 20.028 29.1135 16.351C29.1135 14.5795 28.7895 12.9035 28.142 11.3225C27.4955 9.74148 26.552 8.33248 25.315 7.09348C22.742 4.52198 19.6475 3.23598 16.0285 3.23598ZM15.828 13.6935L13.6845 14.808C13.4555 14.3325 13.175 13.9985 12.842 13.808C12.5085 13.618 12.199 13.5225 11.913 13.5225C10.485 13.5225 9.77 14.465 9.77 16.351C9.77 17.208 9.951 17.893 10.3125 18.4075C10.6745 18.922 11.208 19.1795 11.913 19.1795C12.8465 19.1795 13.5035 18.722 13.885 17.808L15.856 18.808C15.437 19.5895 14.856 20.2035 14.113 20.651C13.371 21.099 12.5515 21.3225 11.656 21.3225C10.2275 21.3225 9.0745 20.885 8.1985 20.008C7.3225 19.132 6.8845 17.913 6.8845 16.3515C6.8845 14.8275 7.3275 13.6185 8.213 12.723C9.0985 11.828 10.2175 11.38 11.5705 11.38C13.552 11.379 14.9705 12.1505 15.828 13.6935ZM25.0565 13.6935L22.942 14.808C22.7135 14.3325 22.432 13.9985 22.099 13.808C21.765 13.618 21.4455 13.5225 21.142 13.5225C19.7135 13.5225 18.9985 14.465 18.9985 16.351C18.9985 17.208 19.18 17.893 19.5415 18.4075C19.903 18.922 20.436 19.1795 21.142 19.1795C22.0745 19.1795 22.732 18.722 23.1125 17.808L25.1125 18.808C24.675 19.5895 24.084 20.2035 23.342 20.651C22.599 21.099 21.7895 21.3225 20.9135 21.3225C19.4655 21.3225 18.309 20.885 17.443 20.008C16.575 19.132 16.142 17.913 16.142 16.3515C16.142 14.8275 16.5845 13.6185 17.471 12.723C18.356 11.828 19.475 11.38 20.8275 11.38C22.8085 11.379 24.219 12.1505 25.0565 13.6935Z" fill="black"/>
</svg>
