<svg width="40" height="40" viewBox="0 0 40 40" fill="none" xmlns="http://www.w3.org/2000/svg">
<path d="M25.4167 22.5H18.75C18.06 22.5 17.5 21.94 17.5 21.25V11.25C17.5 10.56 18.06 10 18.75 10C19.44 10 20 10.56 20 11.25V20H25.4167C26.1067 20 26.6667 20.56 26.6667 21.25C26.6667 21.94 26.1067 22.5 25.4167 22.5ZM20 3.33337C10.7967 3.33337 3.33337 10.7967 3.33337 20C3.33337 29.2034 10.7967 36.6667 20 36.6667C29.2034 36.6667 36.6667 29.2034 36.6667 20C36.6667 10.7967 29.2034 3.33337 20 3.33337Z" fill="black" fill-opacity="0.75"/>
</svg>
