<svg width="36" height="36" viewBox="0 0 36 36" fill="none" xmlns="http://www.w3.org/2000/svg">
<path d="M24.4393 26.5607C25.0251 27.1464 25.9749 27.1464 26.5607 26.5607C27.1464 25.9749 27.1464 25.0251 26.5607 24.4393L20.1213 18L26.5607 11.5607C27.1464 10.9749 27.1464 10.0251 26.5607 9.43934C25.9749 8.85355 25.0251 8.85355 24.4393 9.43934L18 15.8787L11.5607 9.43934C10.9749 8.85355 10.0251 8.85355 9.43934 9.43934C8.85355 10.0251 8.85355 10.9749 9.43934 11.5607L15.8787 18L9.43934 24.4393C8.85355 25.0251 8.85355 25.9749 9.43934 26.5607C10.0251 27.1464 10.9749 27.1464 11.5607 26.5607L18 20.1213L24.4393 26.5607Z" fill="#FDF8ED"/>
</svg>
