<svg width="60" height="60" viewBox="0 0 60 60" fill="none" xmlns="http://www.w3.org/2000/svg">
<path fill-rule="evenodd" clip-rule="evenodd" d="M40.4802 8.33335C39.8824 8.33335 39.3878 8.82787 39.3878 9.42571V12.9385C39.3878 13.5363 39.8824 14.0309 40.4802 14.0309H43.8872C44.485 14.0309 44.9795 13.5363 44.9795 12.9385V9.42571C44.9795 8.82788 44.485 8.33335 43.8872 8.33335H40.4802ZM37.7212 9.42571C37.7212 7.9074 38.9619 6.66669 40.4802 6.66669H43.8872C45.4055 6.66669 46.6462 7.9074 46.6462 9.42571V12.9385C46.6462 14.4568 45.4055 15.6975 43.8872 15.6975H40.4802C38.9619 15.6975 37.7212 14.4568 37.7212 12.9385V9.42571ZM27.9093 8.45891C27.1976 8.45891 26.667 9.02133 26.667 9.54481V9.55363L26.6669 9.55363L26.5716 18.5593C26.5689 18.8169 26.4471 19.0588 26.2418 19.2145C26.0365 19.3702 25.7707 19.4221 25.5219 19.3552C24.5027 19.0811 23.8628 19.0042 22.7217 19.0042C19.0174 19.0042 16.0555 20.0836 14.0282 21.9536C12.0086 23.8163 10.8337 26.539 10.8337 30C10.8337 33.6192 11.9503 36.3909 14.0418 38.2688C16.147 40.159 19.3578 41.25 23.7503 41.25C25.4825 41.25 27.1972 41.071 29.0645 40.8397L29.0657 40.8395C30.995 40.6032 32.5003 38.6962 32.5003 36.6667V9.54481C32.5003 8.96647 32.007 8.45891 31.3749 8.45891H27.9093ZM25.0003 9.53992C25.0033 7.95684 26.427 6.79224 27.9093 6.79224H31.3749C32.8952 6.79224 34.167 8.0141 34.167 9.54481V36.6667C34.167 39.4036 32.1607 42.1396 29.2683 42.4938C27.3907 42.7264 25.5909 42.9167 23.7503 42.9167C19.1023 42.9167 15.4381 41.7624 12.9284 39.509C10.405 37.2434 9.16699 33.9734 9.16699 30C9.16699 26.1426 10.4889 22.9507 12.8982 20.7285C15.2997 18.5134 18.6985 17.3375 22.7217 17.3375C23.5849 17.3375 24.225 17.3799 24.916 17.5065L25.0003 9.53992ZM39.3595 20.1925C39.2708 20.2812 39.167 20.4624 39.167 20.8334V33.3334C39.167 39.5578 38.9689 41.8644 37.8291 44.1226C37.294 45.2033 36.681 46.0757 35.7508 46.8728C35.1132 47.4192 34.3431 47.916 33.381 48.4219L38.3725 51.5416C41.1025 50.0776 42.3523 48.3561 43.4272 46.2831L43.4309 46.2759L43.431 46.2759C44.5963 44.0812 45.0004 41.5577 45.0004 35.8334V20.8334C45.0004 20.4625 44.8966 20.2812 44.8079 20.1925C44.7192 20.1038 44.5379 20 44.167 20H40.0003C39.6294 20 39.4481 20.1038 39.3595 20.1925ZM38.181 19.014C38.6611 18.5338 39.3132 18.3334 40.0003 18.3334H44.167C44.8542 18.3334 45.5062 18.5338 45.9864 19.014C46.4666 19.4941 46.6671 20.1462 46.6671 20.8334V35.8334C46.6671 41.5757 46.2775 44.4669 44.905 47.0537C43.6627 49.4487 42.119 51.5391 38.7063 53.2454C38.4467 53.3752 38.1382 53.3605 37.892 53.2067L31.2253 49.04C30.9656 48.8777 30.8159 48.5861 30.8353 48.2805C30.8548 47.9748 31.0403 47.7045 31.3184 47.5764C32.9005 46.8478 33.9249 46.2427 34.6663 45.6073C35.3908 44.9864 35.8775 44.3087 36.3367 43.3805L36.3398 43.3743L36.3398 43.3743C37.2724 41.5281 37.5003 39.6336 37.5003 33.3334V20.8334C37.5003 20.1462 37.7008 19.4941 38.181 19.014ZM18.6687 24.9881C19.9617 23.8444 21.7461 23.3334 23.7503 23.3334C24.7809 23.3334 25.581 23.4956 26.5032 23.7893C26.8489 23.8994 27.0837 24.2205 27.0837 24.5834V35.8334C27.0837 36.2157 26.8234 36.5491 26.4524 36.6418C25.6266 36.8483 25.1408 36.9619 24.754 37.0198C24.359 37.0789 24.0724 37.0789 23.6917 37.0788L23.6473 37.0788C21.5712 37.0788 19.8052 36.4094 18.5582 35.1377C17.313 33.868 16.667 32.0813 16.667 30C16.667 27.8529 17.3593 26.1463 18.6687 24.9881ZM19.7729 26.2365C18.8936 27.0143 18.3337 28.2243 18.3337 30C18.3337 31.7361 18.8669 33.0721 19.7481 33.9708C20.6275 34.8675 21.935 35.4121 23.6473 35.4121C24.0621 35.4121 24.237 35.412 24.5071 35.3715C24.7153 35.3403 24.9804 35.2848 25.417 35.1801V25.2091C24.8677 25.0684 24.363 25 23.7503 25C22.0092 25 20.6685 25.4443 19.7729 26.2365Z" fill="#009699"/>
</svg>
