<svg width="32" height="33" viewBox="0 0 32 33" fill="none" xmlns="http://www.w3.org/2000/svg">
<path d="M16.0684 30.641C23.8766 30.641 30.2064 24.3112 30.2064 16.503C30.2064 8.69476 23.8766 2.36496 16.0684 2.36496C8.26022 2.36496 1.93042 8.69476 1.93042 16.503C1.93042 24.3112 8.26022 30.641 16.0684 30.641Z" fill="white"/>
<path d="M15.9715 0.349976C20.4655 0.349976 24.2565 1.89248 27.3425 4.97848C30.4465 8.08348 32 11.874 32 16.35C32 20.8455 30.4755 24.588 27.4275 27.578C24.1895 30.7595 20.371 32.35 15.9715 32.35C11.647 32.35 7.895 30.778 4.7145 27.635C1.572 24.492 0 20.731 0 16.35C0 11.9695 1.572 8.17898 4.7145 4.97898C7.8005 1.89248 11.552 0.349976 15.9715 0.349976ZM16.0285 3.23598C12.3905 3.23598 9.3145 4.51248 6.8 7.06448C4.19 9.73148 2.8855 12.827 2.8855 16.3505C2.8855 19.8935 4.1805 22.9605 6.7705 25.5495C9.361 28.1405 12.4465 29.435 16.0275 29.435C19.589 29.435 22.6945 28.1315 25.342 25.521C27.8565 23.102 29.1135 20.045 29.1135 16.3495C29.1135 12.7115 27.837 9.61698 25.2855 7.06398C22.7335 4.51198 19.6475 3.23598 16.0285 3.23598ZM20.3145 12.3785V18.921H18.4865V26.692H13.5145V18.9215H11.6865V12.3785C11.6865 12.0925 11.7865 11.85 11.986 11.65C12.1865 11.4505 12.4295 11.35 12.7145 11.35H19.2865C19.553 11.35 19.7915 11.45 20.0005 11.65C20.209 11.85 20.3145 12.093 20.3145 12.3785ZM13.771 8.26448C13.771 6.76048 14.5135 6.00748 16 6.00748C17.4865 6.00748 18.2285 6.75948 18.2285 8.26448C18.2285 9.74998 17.4855 10.493 16 10.493C14.5145 10.493 13.771 9.74998 13.771 8.26448Z" fill="black"/>
</svg>
