<svg width="36" height="36" viewBox="0 0 36 36" fill="none" xmlns="http://www.w3.org/2000/svg">
<path d="M8 11C8 10.4477 8.44772 10 9 10H27C27.5523 10 28 10.4477 28 11C28 11.5523 27.5523 12 27 12H9C8.44772 12 8 11.5523 8 11Z" fill="#FDF8ED"/>
<path d="M8 25C8 24.4477 8.44772 24 9 24H27C27.5523 24 28 24.4477 28 25C28 25.5523 27.5523 26 27 26H9C8.44772 26 8 25.5523 8 25Z" fill="#FDF8ED"/>
<path d="M8 18C8 17.4477 8.44772 17 9 17H27C27.5523 17 28 17.4477 28 18C28 18.5523 27.5523 19 27 19H9C8.44772 19 8 18.5523 8 18Z" fill="#FDF8ED"/>
</svg>
