<svg width="40" height="40" viewBox="0 0 40 40" fill="none" xmlns="http://www.w3.org/2000/svg">
<path d="M28.75 20C30.8211 20 32.5 21.6789 32.5 23.75H20V26.25H32.4012C32.2668 27.1013 31.9967 27.9437 31.5983 28.75H20V31.25H29.8224C27.683 33.4588 24.3281 35 20 35C12.1488 35 7.5 29.9286 7.5 25V23.75C7.5 21.6789 9.17893 20 11.25 20H28.75ZM26.7616 9.375C26.8361 9.78035 26.875 10.1981 26.875 10.625C26.875 11.0519 26.8361 11.4697 26.7616 11.875H20V14.375H25.7632C24.5365 16.2564 22.4135 17.5 20 17.5C16.203 17.5 13.125 14.422 13.125 10.625C13.125 6.82804 16.203 3.75 20 3.75C22.4135 3.75 24.5365 4.99362 25.7632 6.875H20V9.375H26.7616Z" fill="black" fill-opacity="0.75"/>
</svg>
