<svg width="60" height="60" viewBox="0 0 60 60" fill="none" xmlns="http://www.w3.org/2000/svg">
<path fill-rule="evenodd" clip-rule="evenodd" d="M11.667 9.16667C11.667 6.86548 13.5325 5 15.8337 5H44.167C46.4682 5 48.3337 6.86548 48.3337 9.16667V50.8333C48.3337 53.1345 46.4682 55 44.167 55H15.8337C13.5325 55 11.667 53.1345 11.667 50.8333V9.16667ZM15.8337 6.66667C14.4529 6.66667 13.3337 7.78595 13.3337 9.16667V50.8333C13.3337 52.214 14.4529 53.3333 15.8337 53.3333H44.167C45.5477 53.3333 46.667 52.214 46.667 50.8333V9.16667C46.667 7.78595 45.5477 6.66667 44.167 6.66667H15.8337ZM36.859 13.5253C37.4447 12.9396 38.271 12.5 39.167 12.5H40.0003C40.4606 12.5 40.8337 12.8731 40.8337 13.3333C40.8337 13.7936 40.4606 14.1667 40.0003 14.1667H39.167C38.813 14.1667 38.3893 14.352 38.0375 14.7038C37.6857 15.0556 37.5003 15.4794 37.5003 15.8333V19.1667C37.5003 19.9692 37.2337 20.799 36.6648 21.4391C36.594 21.5187 36.5192 21.5947 36.4404 21.6667C36.5192 21.7387 36.594 21.8146 36.6648 21.8943C37.2337 22.5343 37.5003 23.3641 37.5003 24.1667V27.5C37.5003 27.854 37.6857 28.2777 38.0375 28.6295C38.3893 28.9813 38.813 29.1667 39.167 29.1667H40.0003C40.4606 29.1667 40.8337 29.5398 40.8337 30C40.8337 30.4602 40.4606 30.8333 40.0003 30.8333H39.167C38.271 30.8333 37.4447 30.3937 36.859 29.808C36.2733 29.2223 35.8337 28.396 35.8337 27.5V24.1667C35.8337 23.7192 35.6836 23.299 35.4191 23.0016C35.1684 22.7194 34.7742 22.5 34.167 22.5H33.3337C32.8734 22.5 32.5003 22.1269 32.5003 21.6667C32.5003 21.2064 32.8734 20.8333 33.3337 20.8333H34.167C34.7742 20.8333 35.1684 20.6139 35.4191 20.3318C35.6836 20.0343 35.8337 19.6141 35.8337 19.1667V15.8333C35.8337 14.9373 36.2733 14.111 36.859 13.5253ZM25.8337 35C25.8337 34.5398 26.2068 34.1667 26.667 34.1667H30.0003C30.4606 34.1667 30.8337 34.5398 30.8337 35V43.3333C30.8337 46.555 28.222 49.1667 25.0003 49.1667H24.167C23.7068 49.1667 23.3337 48.7936 23.3337 48.3333C23.3337 47.8731 23.7068 47.5 24.167 47.5H25.0003C27.3015 47.5 29.167 45.6345 29.167 43.3333V35.8333H26.667C26.2068 35.8333 25.8337 35.4602 25.8337 35ZM32.5003 37.5C32.5003 35.659 33.9927 34.1667 35.8337 34.1667H40.0003C40.4606 34.1667 40.8337 34.5398 40.8337 35C40.8337 35.4602 40.4606 35.8333 40.0003 35.8333H35.8337C34.9132 35.8333 34.167 36.5795 34.167 37.5C34.167 38.4205 34.9132 39.1667 35.8337 39.1667H38.3337C40.1746 39.1667 41.667 40.659 41.667 42.5C41.667 44.341 40.1746 45.8333 38.3337 45.8333H34.167C33.7068 45.8333 33.3337 45.4602 33.3337 45C33.3337 44.5398 33.7068 44.1667 34.167 44.1667H38.3337C39.2541 44.1667 40.0003 43.4205 40.0003 42.5C40.0003 41.5795 39.2541 40.8333 38.3337 40.8333H35.8337C33.9927 40.8333 32.5003 39.341 32.5003 37.5Z" fill="#009699"/>
</svg>
