<svg width="110" height="40" viewBox="0 0 110 40" fill="none" xmlns="http://www.w3.org/2000/svg">
<path d="M20.1842 18.5081C18.7835 17.7055 16.9925 18.1818 16.1838 19.5719L8.38239 32.983C7.43475 34.6121 7.99712 36.6951 9.63849 37.6357C11.2799 38.5762 13.3787 38.018 14.3263 36.389L23.592 20.4608L20.1842 18.5081Z" fill="#201230"/>
<path d="M20.4149 17.0671C19.5942 16.5968 19.313 15.5553 19.7868 14.7407C20.2607 13.9262 21.3101 13.6471 22.1307 14.1174C22.9514 14.5877 23.2326 15.6292 22.7588 16.4437C22.285 17.2582 21.2356 17.5373 20.4149 17.0671Z" fill="#201230"/>
<path d="M24.1925 12.4038C23.9066 12.6875 23.9066 13.1476 24.1925 13.4314L25.0661 14.2984C25.352 14.5822 25.8156 14.5822 26.1015 14.2984L26.9751 13.4314C27.261 13.1476 27.261 12.6875 26.9751 12.4038L26.1015 11.5367C25.8156 11.2529 25.352 11.2529 25.0661 11.5367L24.1925 12.4038Z" fill="#201230"/>
<path d="M24.6837 9.60087C24.2793 9.60087 23.9516 9.27555 23.9516 8.87425V8.40072C23.9516 7.99942 24.2793 7.6741 24.6837 7.6741H25.1608C25.5651 7.6741 25.8929 7.99942 25.8929 8.40072V8.87425C25.8929 9.27555 25.5651 9.60087 25.1608 9.60087H24.6837Z" fill="#201230"/>
<path fill-rule="evenodd" clip-rule="evenodd" d="M22.391 0.999468C22.947 0.043741 24.1783 -0.283717 25.1412 0.268073L34.493 5.62679C35.4559 6.17858 35.7859 7.40066 35.2299 8.35639L34.8067 9.08393C34.6302 9.38739 34.3855 9.62751 34.103 9.79626L39.589 18.5776C40.137 19.4546 40.137 20.5453 39.589 21.4224L31.9582 33.637C31.4303 34.4818 30.4716 35 29.436 35C27.1647 35 25.7562 32.6562 26.9139 30.8031L32.7743 21.4224C33.3223 20.5453 33.3223 19.4546 32.7743 18.5776L29.7358 13.7139L15.9907 37.3425C14.5123 39.8838 11.2382 40.7545 8.67765 39.2873C6.1171 37.8201 5.23979 34.5705 6.71813 32.0291L6.87203 31.7646L0.410962 21.4224C-0.13699 20.5453 -0.136987 19.4547 0.410966 18.5776L8.04184 6.36304C8.56968 5.51815 9.52842 5.00003 10.564 5.00003C12.8353 5.00003 14.2438 7.3438 13.0861 9.19692L7.22568 18.5776C6.67773 19.4547 6.67773 20.5454 7.22568 21.4224L10.1579 26.116L22.7443 4.4793L22.7047 4.45661C21.7418 3.90482 21.4118 2.68274 21.9678 1.72701L22.391 0.999468ZM31.0658 9.24767L30.0042 8.64686C29.7416 8.49638 29.6516 8.16308 29.8032 7.90243C29.9549 7.64177 30.2907 7.55247 30.5533 7.70296L32.6055 8.87142C33.0432 9.12223 33.6029 8.97338 33.8556 8.53896L34.2789 7.81142C34.5316 7.377 34.3816 6.82151 33.9439 6.57069L24.5922 1.21198C24.1545 0.961167 23.5948 1.11001 23.3421 1.54443L22.9188 2.27197C22.6661 2.7064 22.8161 3.26189 23.2538 3.5127L23.7689 3.80787C23.895 3.88014 23.9871 3.99917 24.0247 4.13878C24.0624 4.27839 24.0427 4.42714 23.9699 4.55231L7.66917 32.5741C6.49409 34.5941 7.19144 37.1771 9.22673 38.3434C11.262 39.5096 13.8646 38.8175 15.0396 36.7975L31.0658 9.24767Z" fill="#201230"/>
<path d="M49.8796 14.2559V5.00826C49.8796 4.81306 49.7576 4.69106 49.5624 4.69106H46.3172C46.122 4.69106 46 4.81306 46 5.00826V17.3059C46 17.5011 46.122 17.6231 46.3172 17.6231H55.5893C55.7845 17.6231 55.9065 17.5011 55.9065 17.3059V14.5731C55.9065 14.3779 55.7845 14.2559 55.5893 14.2559H49.8796Z" fill="#201230"/>
<path d="M66.177 16.1347L66.7138 17.3791C66.787 17.5499 66.8846 17.6231 67.0798 17.6231H70.4227C70.6423 17.6231 70.7643 17.4767 70.6667 17.2571L68.5438 12.0355C67.5434 9.61989 66.6406 6.88707 66.1282 4.95946C66.0794 4.78866 65.9574 4.69106 65.7622 4.69106H61.9558C61.785 4.69106 61.663 4.78866 61.6142 4.95946C61.0774 6.88707 60.1746 9.57109 59.1742 12.0355L57.0514 17.2571C56.9538 17.4767 57.0758 17.6231 57.2954 17.6231H60.6382C60.8334 17.6231 60.931 17.5499 61.0042 17.3791L61.541 16.1347H66.177ZM62.7122 13.2311C63.1514 11.8403 63.4442 10.4739 63.6394 9.35149C63.6882 9.05869 64.0542 9.05869 64.103 9.35149C64.2738 10.4739 64.5666 11.8647 65.0058 13.2311H62.7122Z" fill="#201230"/>
<path d="M72.3172 4.66666C72.122 4.66666 72 4.78866 72 4.98386V17.3059C72 17.5011 72.122 17.6231 72.3172 17.6231H78.5148C81.7113 17.6231 83.6389 16.2323 83.6389 13.9387C83.6389 11.9867 82.1993 11.4255 81.5649 11.2059C81.2477 11.0839 81.2721 10.9131 81.5893 10.7911C82.0529 10.6203 83.1509 9.98589 83.1509 8.32668C83.1509 6.03307 81.4917 4.66666 78.6612 4.66666H72.3172ZM75.8796 7.91188H78.2708C79.0028 7.91188 79.4176 8.20468 79.4176 8.69268C79.4176 9.32709 78.954 9.64429 77.9536 9.64429H75.8796V7.91188ZM75.8796 12.5235H78.222C79.3688 12.5235 79.8568 12.8651 79.8568 13.5483C79.8568 14.0607 79.3444 14.3779 78.4416 14.3779H75.8796V12.5235Z" fill="#201230"/>
<path d="M55.9962 33.9835C56.2158 33.9103 56.289 33.7882 56.2158 33.5686L55.435 30.8846C55.3618 30.6894 55.2398 30.6162 55.0446 30.665L53.971 30.9578C53.361 31.153 52.6534 31.2506 52.1654 31.2506C50.1402 31.2506 49.1154 30.0062 49.1154 27.8834C49.1154 25.8338 50.067 24.6382 52.1898 24.6382C52.6534 24.6382 53.1902 24.7114 53.849 24.9066L54.8738 25.1994C55.069 25.2482 55.191 25.175 55.2642 24.9798L56.0938 22.3202C56.167 22.1006 56.0938 21.9786 55.8742 21.9054L54.459 21.515C53.727 21.2954 52.995 21.1978 52.1898 21.1978C47.7245 21.1978 45.3333 23.7842 45.3333 27.9078C45.3333 32.0558 47.7489 34.6667 52.1166 34.6667C52.8974 34.6667 53.971 34.5447 54.7762 34.3251L55.9962 33.9835Z" fill="#201230"/>
<path d="M63.8931 21.1978C59.8671 21.1978 57.3783 23.833 57.3783 27.9322C57.3783 32.0558 59.8671 34.6667 63.8931 34.6667C67.8948 34.6667 70.3836 32.0558 70.3836 27.9322C70.3836 23.833 67.8948 21.1978 63.8931 21.1978ZM63.8931 24.6382C65.5524 24.6382 66.6016 25.8582 66.6016 27.9322C66.6016 30.0062 65.5524 31.2506 63.8931 31.2506C62.2095 31.2506 61.1603 30.0062 61.1603 27.9322C61.1603 25.8582 62.2095 24.6382 63.8931 24.6382Z" fill="#201230"/>
<path d="M72.4214 21.4662C72.2262 21.4662 72.1042 21.5882 72.1042 21.7834V34.0811C72.1042 34.2763 72.2262 34.3983 72.4214 34.3983H77.7894C82.0838 34.3983 84.5239 31.763 84.5239 27.9078C84.5239 23.9794 82.157 21.4662 77.7894 21.4662H72.4214ZM75.9838 24.8578H77.7894C79.6438 24.8578 80.7418 26.029 80.7418 27.9078C80.7418 29.7866 79.6438 31.031 77.7894 31.031H75.9838V24.8578Z" fill="#201230"/>
<path d="M90.1025 26.3706V24.7602H95.9586C96.1294 24.7602 96.2514 24.6626 96.3002 24.4918L97.081 21.8322C97.1298 21.6126 97.0322 21.4662 96.8126 21.4662H86.5401C86.3449 21.4662 86.2229 21.5882 86.2229 21.7834V34.0811C86.2229 34.2763 86.3449 34.3983 86.5401 34.3983H96.6662C96.8614 34.3983 96.9834 34.2763 96.9834 34.0811V31.4458C96.9834 31.2506 96.8614 31.1286 96.6662 31.1286H90.1025V29.2742H94.9338C95.129 29.2742 95.251 29.1522 95.251 28.957V26.6878C95.251 26.4926 95.129 26.3706 94.9338 26.3706H90.1025Z" fill="#201230"/>
<path d="M104.526 29.7378C105.234 29.9086 105.551 30.1282 105.551 30.5186C105.551 31.0066 104.99 31.2506 104.038 31.2506C103.331 31.2506 101.72 31.1286 100.574 30.8358L99.4269 30.543C99.2317 30.4942 99.1097 30.5674 99.0365 30.7626L98.2556 33.4222C98.1824 33.6419 98.2801 33.7639 98.4753 33.8127L99.8173 34.1787C101.281 34.5691 102.745 34.6667 104.038 34.6667C107.357 34.6667 109.333 33.1294 109.333 30.5186C109.333 28.4446 108.211 27.127 105.624 26.5414L103.111 25.9802C102.501 25.8338 102.184 25.6386 102.184 25.297C102.184 24.8578 102.745 24.6382 103.697 24.6382C104.404 24.6382 105.551 24.7358 106.283 24.931L107.65 25.2726C107.845 25.3214 107.967 25.2482 108.016 25.053L108.772 22.369C108.845 22.1494 108.748 22.0274 108.553 21.9786L107.235 21.637C106.259 21.393 104.941 21.1978 103.672 21.1978C100.354 21.1978 98.4021 22.735 98.4021 25.3214C98.4021 27.3466 99.5489 28.6154 102.038 29.1766L104.526 29.7378Z" fill="#201230"/>
</svg>
