<svg width="110" height="40" viewBox="0 0 110 40" fill="none" xmlns="http://www.w3.org/2000/svg">
<path d="M20.1842 18.508C18.7835 17.7054 16.9925 18.1817 16.1838 19.5719L8.38239 32.983C7.43475 34.612 7.99712 36.6951 9.63849 37.6356C11.2799 38.5762 13.3787 38.018 14.3263 36.389L23.592 20.4608L20.1842 18.508Z" fill="#FDF8ED"/>
<path d="M20.4149 17.067C19.5942 16.5968 19.313 15.5552 19.7868 14.7407C20.2607 13.9262 21.3101 13.6471 22.1307 14.1174C22.9514 14.5876 23.2326 15.6292 22.7588 16.4437C22.285 17.2582 21.2356 17.5373 20.4149 17.067Z" fill="#FDF8ED"/>
<path d="M24.1925 12.4037C23.9066 12.6875 23.9066 13.1476 24.1925 13.4313L25.0661 14.2984C25.352 14.5821 25.8156 14.5821 26.1015 14.2984L26.9751 13.4313C27.261 13.1476 27.261 12.6875 26.9751 12.4037L26.1015 11.5367C25.8156 11.2529 25.352 11.2529 25.0661 11.5367L24.1925 12.4037Z" fill="#FDF8ED"/>
<path d="M24.6837 9.60084C24.2793 9.60084 23.9516 9.27552 23.9516 8.87422V8.40069C23.9516 7.99939 24.2793 7.67407 24.6837 7.67407H25.1608C25.5651 7.67407 25.8929 7.99939 25.8929 8.40069V8.87422C25.8929 9.27552 25.5651 9.60084 25.1608 9.60084H24.6837Z" fill="#FDF8ED"/>
<path fill-rule="evenodd" clip-rule="evenodd" d="M22.391 0.999437C22.947 0.0437105 24.1783 -0.283747 25.1412 0.268042L34.493 5.62676C35.4559 6.17855 35.7859 7.40063 35.2299 8.35636L34.8067 9.0839C34.6302 9.38736 34.3855 9.62748 34.103 9.79623L39.589 18.5775C40.137 19.4546 40.137 20.5453 39.589 21.4224L31.9582 33.6369C31.4303 34.4818 30.4716 34.9999 29.436 34.9999C27.1647 34.9999 25.7562 32.6562 26.9139 30.8031L32.7743 21.4224C33.3223 20.5453 33.3223 19.4546 32.7743 18.5775L29.7358 13.7139L15.9907 37.3424C14.5123 39.8838 11.2382 40.7545 8.67765 39.2873C6.1171 37.82 5.23979 34.5704 6.71813 32.0291L6.87203 31.7645L0.410962 21.4224C-0.13699 20.5453 -0.136987 19.4547 0.410966 18.5776L8.04184 6.36301C8.56968 5.51812 9.52842 5 10.564 5C12.8353 5 14.2438 7.34377 13.0861 9.19689L7.22568 18.5776C6.67773 19.4547 6.67773 20.5453 7.22568 21.4224L10.1579 26.116L22.7443 4.47927L22.7047 4.45658C21.7418 3.90479 21.4118 2.68271 21.9678 1.72698L22.391 0.999437ZM31.0658 9.24764L30.0042 8.64683C29.7416 8.49634 29.6516 8.16305 29.8032 7.9024C29.9549 7.64174 30.2907 7.55244 30.5533 7.70292L32.6055 8.87138C33.0432 9.1222 33.6029 8.97335 33.8556 8.53893L34.2789 7.81139C34.5316 7.37697 34.3816 6.82148 33.9439 6.57066L24.5922 1.21195C24.1545 0.961137 23.5948 1.10998 23.3421 1.5444L22.9188 2.27194C22.6661 2.70637 22.8161 3.26186 23.2538 3.51267L23.7689 3.80784C23.895 3.88011 23.9871 3.99914 24.0247 4.13875C24.0624 4.27836 24.0427 4.42711 23.9699 4.55228L7.66917 32.5741C6.49409 34.5941 7.19144 37.1771 9.22673 38.3434C11.262 39.5096 13.8646 38.8175 15.0396 36.7975L31.0658 9.24764Z" fill="#FDF8ED"/>
<path d="M49.8798 14.2572V5.00957C49.8798 4.81437 49.7578 4.69237 49.5626 4.69237H46.3174C46.1222 4.69237 46.0002 4.81437 46.0002 5.00957V17.3073C46.0002 17.5025 46.1222 17.6245 46.3174 17.6245H55.5894C55.7846 17.6245 55.9066 17.5025 55.9066 17.3073V14.5744C55.9066 14.3792 55.7846 14.2572 55.5894 14.2572H49.8798Z" fill="#FDF8ED"/>
<path d="M66.1772 16.136L66.714 17.3805C66.7872 17.5513 66.8848 17.6245 67.08 17.6245H70.4228C70.6424 17.6245 70.7644 17.4781 70.6668 17.2585L68.544 12.0368C67.5436 9.6212 66.6408 6.88838 66.1284 4.96077C66.0796 4.78997 65.9576 4.69237 65.7624 4.69237H61.956C61.7852 4.69237 61.6632 4.78997 61.6144 4.96077C61.0776 6.88838 60.1748 9.5724 59.1743 12.0368L57.0515 17.2585C56.9539 17.4781 57.0759 17.6245 57.2955 17.6245H60.6384C60.8336 17.6245 60.9312 17.5513 61.0044 17.3805L61.5412 16.136H66.1772ZM62.7124 13.2324C63.1516 11.8416 63.4444 10.4752 63.6396 9.3528C63.6884 9.06 64.0544 9.06 64.1032 9.3528C64.274 10.4752 64.5668 11.866 65.006 13.2324H62.7124Z" fill="#FDF8ED"/>
<path d="M72.3174 4.66797C72.1222 4.66797 72.0002 4.78997 72.0002 4.98517V17.3073C72.0002 17.5025 72.1222 17.6245 72.3174 17.6245H78.515C81.7114 17.6245 83.639 16.2336 83.639 13.94C83.639 11.988 82.1994 11.4268 81.565 11.2072C81.2478 11.0852 81.2722 10.9144 81.5894 10.7924C82.053 10.6216 83.151 9.9872 83.151 8.32799C83.151 6.03438 81.4918 4.66797 78.6614 4.66797H72.3174ZM75.8798 7.91319H78.271C79.003 7.91319 79.4178 8.20599 79.4178 8.694C79.4178 9.3284 78.9542 9.6456 77.9538 9.6456H75.8798V7.91319ZM75.8798 12.5248H78.2222C79.369 12.5248 79.857 12.8664 79.857 13.5496C79.857 14.062 79.3446 14.3792 78.4418 14.3792H75.8798V12.5248Z" fill="#FDF8ED"/>
<path d="M55.9964 33.9848C56.216 33.9116 56.2892 33.7896 56.216 33.57L55.4352 30.8859C55.362 30.6907 55.24 30.6175 55.0448 30.6663L53.9712 30.9591C53.3611 31.1543 52.6535 31.2519 52.1655 31.2519C50.1403 31.2519 49.1155 30.0075 49.1155 27.8847C49.1155 25.8351 50.0671 24.6395 52.1899 24.6395C52.6535 24.6395 53.1903 24.7127 53.8492 24.9079L54.874 25.2007C55.0692 25.2495 55.1912 25.1763 55.2644 24.9811L56.094 22.3215C56.1672 22.1019 56.094 21.9799 55.8744 21.9067L54.4592 21.5163C53.7272 21.2967 52.9951 21.1991 52.1899 21.1991C47.7247 21.1991 45.3335 23.7855 45.3335 27.9091C45.3335 32.0571 47.7491 34.668 52.1167 34.668C52.8975 34.668 53.9712 34.546 54.7764 34.3264L55.9964 33.9848Z" fill="#FDF8ED"/>
<path d="M63.8933 21.1991C59.8673 21.1991 57.3785 23.8343 57.3785 27.9335C57.3785 32.0572 59.8673 34.668 63.8933 34.668C67.8949 34.668 70.3838 32.0572 70.3838 27.9335C70.3838 23.8343 67.8949 21.1991 63.8933 21.1991ZM63.8933 24.6395C65.5525 24.6395 66.6017 25.8595 66.6017 27.9335C66.6017 30.0075 65.5525 31.2519 63.8933 31.2519C62.2097 31.2519 61.1605 30.0075 61.1605 27.9335C61.1605 25.8595 62.2097 24.6395 63.8933 24.6395Z" fill="#FDF8ED"/>
<path d="M72.4216 21.4675C72.2263 21.4675 72.1043 21.5895 72.1043 21.7847V34.0824C72.1043 34.2776 72.2263 34.3996 72.4216 34.3996H77.7896C82.084 34.3996 84.524 31.7643 84.524 27.9091C84.524 23.9807 82.1572 21.4675 77.7896 21.4675H72.4216ZM75.984 24.8591H77.7896C79.644 24.8591 80.742 26.0303 80.742 27.9091C80.742 29.7879 79.644 31.0323 77.7896 31.0323H75.984V24.8591Z" fill="#FDF8ED"/>
<path d="M90.1027 26.3719V24.7615H95.9587C96.1295 24.7615 96.2515 24.6639 96.3003 24.4931L97.0812 21.8335C97.1299 21.6139 97.0324 21.4675 96.8128 21.4675H86.5403C86.3451 21.4675 86.2231 21.5895 86.2231 21.7847V34.0824C86.2231 34.2776 86.3451 34.3996 86.5403 34.3996H96.6663C96.8615 34.3996 96.9836 34.2776 96.9836 34.0824V31.4471C96.9836 31.2519 96.8615 31.1299 96.6663 31.1299H90.1027V29.2755H94.9339C95.1291 29.2755 95.2511 29.1535 95.2511 28.9583V26.6891C95.2511 26.4939 95.1291 26.3719 94.9339 26.3719H90.1027Z" fill="#FDF8ED"/>
<path d="M104.527 29.7391C105.234 29.9099 105.551 30.1295 105.551 30.5199C105.551 31.0079 104.99 31.2519 104.039 31.2519C103.331 31.2519 101.721 31.1299 100.574 30.8371L99.427 30.5443C99.2318 30.4955 99.1098 30.5687 99.0366 30.7639L98.2558 33.4236C98.1826 33.6432 98.2802 33.7652 98.4754 33.814L99.8174 34.18C101.281 34.5704 102.745 34.668 104.039 34.668C107.357 34.668 109.333 33.1308 109.333 30.5199C109.333 28.4459 108.211 27.1283 105.625 26.5427L103.111 25.9815C102.501 25.8351 102.184 25.6399 102.184 25.2983C102.184 24.8591 102.745 24.6395 103.697 24.6395C104.405 24.6395 105.551 24.7371 106.283 24.9323L107.65 25.2739C107.845 25.3227 107.967 25.2495 108.016 25.0543L108.772 22.3703C108.845 22.1507 108.748 22.0287 108.553 21.9799L107.235 21.6383C106.259 21.3943 104.941 21.1991 103.673 21.1991C100.354 21.1991 98.4022 22.7363 98.4022 25.3227C98.4022 27.3479 99.549 28.6167 102.038 29.1779L104.527 29.7391Z" fill="#FDF8ED"/>
</svg>
