<svg width="40" height="40" viewBox="0 0 40 40" fill="none" xmlns="http://www.w3.org/2000/svg">
<path d="M20.1842 18.5081C18.7835 17.7055 16.9925 18.1818 16.1838 19.5719L8.38239 32.983C7.43475 34.6121 7.99712 36.6951 9.63849 37.6357C11.2799 38.5762 13.3787 38.0181 14.3263 36.389L23.592 20.4608L20.1842 18.5081Z" fill="#201230"/>
<path d="M20.4149 17.0671C19.5942 16.5968 19.313 15.5553 19.7868 14.7407C20.2607 13.9262 21.3101 13.6471 22.1307 14.1174C22.9514 14.5877 23.2326 15.6292 22.7588 16.4437C22.285 17.2583 21.2356 17.5373 20.4149 17.0671Z" fill="#201230"/>
<path d="M24.1925 12.4038C23.9066 12.6875 23.9066 13.1476 24.1925 13.4314L25.0661 14.2984C25.352 14.5822 25.8156 14.5822 26.1015 14.2984L26.9751 13.4314C27.261 13.1476 27.261 12.6875 26.9751 12.4038L26.1015 11.5367C25.8156 11.253 25.352 11.253 25.0661 11.5367L24.1925 12.4038Z" fill="#201230"/>
<path d="M24.6837 9.60088C24.2793 9.60088 23.9516 9.27556 23.9516 8.87426V8.40073C23.9516 7.99943 24.2793 7.67411 24.6837 7.67411H25.1608C25.5651 7.67411 25.8929 7.99943 25.8929 8.40073V8.87426C25.8929 9.27556 25.5651 9.60088 25.1608 9.60088H24.6837Z" fill="#201230"/>
<path fill-rule="evenodd" clip-rule="evenodd" d="M22.391 0.999479C22.947 0.0437524 24.1783 -0.283705 25.1412 0.268084L34.493 5.6268C35.4559 6.17859 35.7859 7.40067 35.2299 8.3564L34.8067 9.08394C34.6302 9.3874 34.3855 9.62753 34.103 9.79627L39.589 18.5776C40.137 19.4547 40.137 20.5453 39.589 21.4224L31.9582 33.637C31.4303 34.4819 30.4716 35 29.436 35C27.1647 35 25.7562 32.6562 26.9139 30.8031L32.7743 21.4224C33.3223 20.5453 33.3223 19.4547 32.7743 18.5776L29.7358 13.7139L15.9907 37.3425C14.5123 39.8838 11.2382 40.7545 8.67765 39.2873C6.1171 37.8201 5.23979 34.5705 6.71813 32.0292L6.87203 31.7646L0.410962 21.4225C-0.13699 20.5454 -0.136987 19.4547 0.410966 18.5776L8.04184 6.36305C8.56968 5.51816 9.52842 5.00004 10.564 5.00004C12.8353 5.00004 14.2438 7.34381 13.0861 9.19694L7.22568 18.5776C6.67773 19.4547 6.67773 20.5454 7.22568 21.4225L10.1579 26.116L22.7443 4.47931L22.7047 4.45662C21.7418 3.90483 21.4118 2.68275 21.9678 1.72702L22.391 0.999479ZM31.0658 9.24768L30.0042 8.64687C29.7416 8.49639 29.6516 8.16309 29.8032 7.90244C29.9549 7.64179 30.2907 7.55248 30.5533 7.70297L32.6055 8.87143C33.0432 9.12224 33.6029 8.9734 33.8556 8.53897L34.2789 7.81143C34.5316 7.37701 34.3816 6.82152 33.9439 6.5707L24.5922 1.21199C24.1545 0.961179 23.5948 1.11002 23.3421 1.54444L22.9188 2.27199C22.6661 2.70641 22.8161 3.2619 23.2538 3.51271L23.7689 3.80789C23.895 3.88015 23.9871 3.99918 24.0247 4.13879C24.0624 4.2784 24.0427 4.42715 23.9699 4.55232L7.66917 32.5741C6.49409 34.5941 7.19144 37.1771 9.22673 38.3434C11.262 39.5097 13.8646 38.8175 15.0396 36.7975L31.0658 9.24768Z" fill="#201230"/>
</svg>
