<svg width="40" height="40" viewBox="0 0 40 40" fill="none" xmlns="http://www.w3.org/2000/svg">
<path d="M20.1842 18.508C18.7835 17.7054 16.9925 18.1817 16.1838 19.5719L8.38239 32.983C7.43475 34.612 7.99712 36.6951 9.63849 37.6356C11.2799 38.5762 13.3787 38.018 14.3263 36.389L23.592 20.4608L20.1842 18.508Z" fill="#FDF8ED"/>
<path d="M20.4149 17.067C19.5942 16.5968 19.313 15.5552 19.7868 14.7407C20.2607 13.9262 21.3101 13.6471 22.1307 14.1174C22.9514 14.5876 23.2326 15.6292 22.7588 16.4437C22.285 17.2582 21.2356 17.5373 20.4149 17.067Z" fill="#FDF8ED"/>
<path d="M24.1925 12.4037C23.9066 12.6875 23.9066 13.1476 24.1925 13.4313L25.0661 14.2984C25.352 14.5821 25.8156 14.5821 26.1015 14.2984L26.9751 13.4313C27.261 13.1476 27.261 12.6875 26.9751 12.4037L26.1015 11.5367C25.8156 11.2529 25.352 11.2529 25.0661 11.5367L24.1925 12.4037Z" fill="#FDF8ED"/>
<path d="M24.6837 9.60084C24.2793 9.60084 23.9516 9.27552 23.9516 8.87422V8.40069C23.9516 7.99939 24.2793 7.67407 24.6837 7.67407H25.1608C25.5651 7.67407 25.8929 7.99939 25.8929 8.40069V8.87422C25.8929 9.27552 25.5651 9.60084 25.1608 9.60084H24.6837Z" fill="#FDF8ED"/>
<path fill-rule="evenodd" clip-rule="evenodd" d="M22.391 0.999437C22.947 0.0437105 24.1783 -0.283747 25.1412 0.268042L34.493 5.62676C35.4559 6.17855 35.7859 7.40063 35.2299 8.35636L34.8067 9.0839C34.6302 9.38736 34.3855 9.62748 34.103 9.79623L39.589 18.5775C40.137 19.4546 40.137 20.5453 39.589 21.4224L31.9582 33.6369C31.4303 34.4818 30.4716 34.9999 29.436 34.9999C27.1647 34.9999 25.7562 32.6562 26.9139 30.8031L32.7743 21.4224C33.3223 20.5453 33.3223 19.4546 32.7743 18.5775L29.7358 13.7139L15.9907 37.3424C14.5123 39.8838 11.2382 40.7545 8.67765 39.2873C6.1171 37.82 5.23979 34.5704 6.71813 32.0291L6.87203 31.7645L0.410962 21.4224C-0.13699 20.5453 -0.136987 19.4547 0.410966 18.5776L8.04184 6.36301C8.56968 5.51812 9.52842 5 10.564 5C12.8353 5 14.2438 7.34377 13.0861 9.19689L7.22568 18.5776C6.67773 19.4547 6.67773 20.5453 7.22568 21.4224L10.1579 26.116L22.7443 4.47927L22.7047 4.45658C21.7418 3.90479 21.4118 2.68271 21.9678 1.72698L22.391 0.999437ZM31.0658 9.24764L30.0042 8.64683C29.7416 8.49634 29.6516 8.16305 29.8032 7.9024C29.9549 7.64174 30.2907 7.55244 30.5533 7.70292L32.6055 8.87138C33.0432 9.1222 33.6029 8.97335 33.8556 8.53893L34.2789 7.81139C34.5316 7.37697 34.3816 6.82148 33.9439 6.57066L24.5922 1.21195C24.1545 0.961137 23.5948 1.10998 23.3421 1.5444L22.9188 2.27194C22.6661 2.70637 22.8161 3.26186 23.2538 3.51267L23.7689 3.80784C23.895 3.88011 23.9871 3.99914 24.0247 4.13875C24.0624 4.27836 24.0427 4.42711 23.9699 4.55228L7.66917 32.5741C6.49409 34.5941 7.19144 37.1771 9.22673 38.3434C11.262 39.5096 13.8646 38.8175 15.0396 36.7975L31.0658 9.24764Z" fill="#FDF8ED"/>
</svg>
