<svg width="88" height="33" viewBox="0 0 88 33" fill="none" xmlns="http://www.w3.org/2000/svg">
<path d="M16.1474 15.1564C15.0268 14.5144 13.594 14.8954 12.9471 16.0075L6.70592 26.7364C5.9478 28.0396 6.3977 29.7061 7.7108 30.4585C9.02389 31.2109 10.7029 30.7644 11.4611 29.4612L18.8736 16.7186L16.1474 15.1564Z" fill="black"/>
<path d="M16.3319 14.0036C15.6754 13.6274 15.4504 12.7942 15.8295 12.1426C16.2085 11.4909 17.0481 11.2677 17.7046 11.6439C18.3612 12.0201 18.5861 12.8533 18.207 13.505C17.828 14.1566 16.9885 14.3798 16.3319 14.0036Z" fill="black"/>
<path d="M19.354 10.273C19.1253 10.5 19.1253 10.8681 19.354 11.0951L20.0529 11.7887C20.2816 12.0157 20.6525 12.0157 20.8812 11.7887L21.5801 11.0951C21.8088 10.8681 21.8088 10.5 21.5801 10.273L20.8812 9.57935C20.6525 9.35234 20.2816 9.35234 20.0529 9.57935L19.354 10.273Z" fill="black"/>
<path d="M19.7469 8.03068C19.4235 8.03068 19.1612 7.77042 19.1612 7.44938V7.07056C19.1612 6.74952 19.4235 6.48926 19.7469 6.48926H20.1286C20.4521 6.48926 20.7143 6.74952 20.7143 7.07056V7.44938C20.7143 7.77042 20.4521 8.03068 20.1286 8.03068H19.7469Z" fill="black"/>
<path fill-rule="evenodd" clip-rule="evenodd" d="M17.9128 1.14956C18.3576 0.384974 19.3426 0.123008 20.113 0.56444L27.5944 4.85141C28.3648 5.29284 28.6287 6.27051 28.1839 7.03509L27.8454 7.61712C27.7041 7.8599 27.5084 8.05199 27.2824 8.18699L31.6712 15.212C32.1096 15.9137 32.1096 16.7862 31.6712 17.4879L25.5665 27.2596C25.1443 27.9355 24.3773 28.35 23.5488 28.35C21.7317 28.35 20.6049 26.4749 21.5311 24.9924L26.2195 17.4879C26.6578 16.7862 26.6578 15.9137 26.2195 15.212L23.7886 11.3211L12.7925 30.224C11.6099 32.257 8.99055 32.9536 6.94212 31.7798C4.89368 30.606 4.19184 28.0064 5.3745 25.9733L5.49763 25.7616L0.32877 17.4879C-0.109592 16.7863 -0.109589 15.9137 0.328773 15.2121L6.43348 5.44041C6.85574 4.7645 7.62274 4.35001 8.45119 4.35001C10.2683 4.35001 11.3951 6.22502 10.4689 7.70752L5.78055 15.2121C5.34219 15.9137 5.34219 16.7863 5.78055 17.4879L8.12632 21.2428L18.1954 3.93342L18.1638 3.91527C17.3934 3.47384 17.1295 2.49617 17.5742 1.73159L17.9128 1.14956ZM24.8527 7.74812L24.0034 7.26747C23.7933 7.14708 23.7213 6.88045 23.8426 6.67192C23.9639 6.4634 24.2325 6.39196 24.4426 6.51235L26.0844 7.44711C26.4346 7.64776 26.8824 7.52869 27.0845 7.18115L27.4231 6.59912C27.6253 6.25158 27.5053 5.80719 27.1551 5.60654L19.6737 1.31957C19.3236 1.11892 18.8758 1.23799 18.6736 1.58553L18.3351 2.16756C18.1329 2.5151 18.2529 2.95949 18.603 3.16014L19.0151 3.39628C19.116 3.45409 19.1896 3.54932 19.2198 3.66101C19.25 3.77269 19.2342 3.89169 19.1759 3.99183L6.13534 26.4093C5.19527 28.0253 5.75315 30.0917 7.38139 31.0247C9.00962 31.9577 11.0916 31.404 12.0317 29.788L24.8527 7.74812Z" fill="black"/>
<path d="M39.9036 11.7547V4.35659C39.9036 4.20043 39.806 4.10283 39.6499 4.10283H37.0537C36.8975 4.10283 36.7999 4.20043 36.7999 4.35659V14.1947C36.7999 14.3509 36.8975 14.4485 37.0537 14.4485H44.4713C44.6275 14.4485 44.7251 14.3509 44.7251 14.1947V12.0085C44.7251 11.8523 44.6275 11.7547 44.4713 11.7547H39.9036Z" fill="black"/>
<path d="M52.9416 13.2578L53.371 14.2533C53.4296 14.3899 53.5076 14.4485 53.6638 14.4485H56.3381C56.5137 14.4485 56.6113 14.3314 56.5333 14.1557L54.835 9.97839C54.0347 8.0459 53.3124 5.85964 52.9025 4.31755C52.8635 4.18091 52.7659 4.10283 52.6097 4.10283H49.5646C49.4279 4.10283 49.3303 4.18091 49.2913 4.31755C48.8619 5.85964 48.1396 8.00686 47.3393 9.97839L45.641 14.1557C45.563 14.3314 45.6606 14.4485 45.8362 14.4485H48.5105C48.6667 14.4485 48.7447 14.3899 48.8033 14.2533L49.2327 13.2578H52.9416ZM50.1697 10.9349C50.5211 9.82223 50.7553 8.7291 50.9115 7.83118C50.9505 7.59694 51.2433 7.59694 51.2824 7.83118C51.419 8.7291 51.6532 9.84175 52.0046 10.9349H50.1697Z" fill="black"/>
<path d="M57.8537 4.08331C57.6975 4.08331 57.5999 4.18091 57.5999 4.33707V14.1947C57.5999 14.3509 57.6975 14.4485 57.8537 14.4485H62.8118C65.3689 14.4485 66.911 13.3359 66.911 11.501C66.911 9.93935 65.7594 9.49039 65.2518 9.31471C64.9981 9.21711 65.0176 9.08047 65.2713 8.98287C65.6422 8.84623 66.5206 8.3387 66.5206 7.01133C66.5206 5.17644 65.1933 4.08331 62.9289 4.08331H57.8537ZM60.7036 6.67949H62.6166C63.2022 6.67949 63.5341 6.91373 63.5341 7.30413C63.5341 7.81166 63.1632 8.06542 62.3629 8.06542H60.7036V6.67949ZM60.7036 10.3688H62.5776C63.495 10.3688 63.8854 10.6421 63.8854 11.1886C63.8854 11.5986 63.4755 11.8523 62.7533 11.8523H60.7036V10.3688Z" fill="black"/>
<path d="M44.7969 27.5368C44.9726 27.4782 45.0311 27.3806 44.9726 27.2049L44.3479 25.0577C44.2894 24.9015 44.1918 24.843 44.0356 24.882L43.1767 25.1163C42.6887 25.2724 42.1226 25.3505 41.7322 25.3505C40.1121 25.3505 39.2922 24.355 39.2922 22.6567C39.2922 21.017 40.0535 20.0605 41.7518 20.0605C42.1226 20.0605 42.5521 20.1191 43.0791 20.2753L43.899 20.5095C44.0551 20.5485 44.1527 20.49 44.2113 20.3338L44.875 18.2061C44.9335 18.0304 44.875 17.9328 44.6993 17.8743L43.5671 17.562C42.9815 17.3863 42.3959 17.3082 41.7518 17.3082C38.1796 17.3082 36.2666 19.3773 36.2666 22.6762C36.2666 25.9947 38.1991 28.0833 41.6932 28.0833C42.3178 28.0833 43.1767 27.9857 43.8209 27.81L44.7969 27.5368Z" fill="black"/>
<path d="M51.1145 17.3082C47.8936 17.3082 45.9026 19.4164 45.9026 22.6958C45.9026 25.9947 47.8936 28.0833 51.1145 28.0833C54.3158 28.0833 56.3068 25.9947 56.3068 22.6958C56.3068 19.4164 54.3158 17.3082 51.1145 17.3082ZM51.1145 20.0605C52.4418 20.0605 53.2812 21.0365 53.2812 22.6958C53.2812 24.355 52.4418 25.3505 51.1145 25.3505C49.7676 25.3505 48.9282 24.355 48.9282 22.6958C48.9282 21.0365 49.7676 20.0605 51.1145 20.0605Z" fill="black"/>
<path d="M57.937 17.5229C57.7809 17.5229 57.6833 17.6205 57.6833 17.7767V27.6148C57.6833 27.771 57.7809 27.8686 57.937 27.8686H62.2315C65.667 27.8686 67.619 25.7604 67.619 22.6762C67.619 19.5335 65.7256 17.5229 62.2315 17.5229H57.937ZM60.787 20.2362H62.2315C63.715 20.2362 64.5934 21.1732 64.5934 22.6762C64.5934 24.1793 63.715 25.1748 62.2315 25.1748H60.787V20.2362Z" fill="black"/>
<path d="M72.082 21.4465V20.1581H76.7668C76.9034 20.1581 77.001 20.0801 77.0401 19.9434L77.6647 17.8157C77.7038 17.64 77.6257 17.5229 77.45 17.5229H69.232C69.0759 17.5229 68.9783 17.6205 68.9783 17.7767V27.6148C68.9783 27.771 69.0759 27.8686 69.232 27.8686H77.3329C77.489 27.8686 77.5867 27.771 77.5867 27.6148V25.5067C77.5867 25.3505 77.489 25.2529 77.3329 25.2529H72.082V23.7694H75.947C76.1031 23.7694 76.2007 23.6718 76.2007 23.5156V21.7002C76.2007 21.5441 76.1031 21.4465 75.947 21.4465H72.082Z" fill="black"/>
<path d="M83.6211 24.1402C84.1872 24.2769 84.441 24.4526 84.441 24.7649C84.441 25.1553 83.992 25.3505 83.2307 25.3505C82.6646 25.3505 81.3763 25.2529 80.4589 25.0187L79.5414 24.7844C79.3853 24.7454 79.2877 24.8039 79.2291 24.9601L78.6045 27.0878C78.5459 27.2635 78.624 27.3611 78.7801 27.4001L79.8538 27.6929C81.025 28.0052 82.1962 28.0833 83.2307 28.0833C85.8855 28.0833 87.4666 26.8535 87.4666 24.7649C87.4666 23.1057 86.5687 22.0516 84.4995 21.5831L82.489 21.1341C82.001 21.017 81.7472 20.8609 81.7472 20.5876C81.7472 20.2362 82.1962 20.0605 82.9575 20.0605C83.5235 20.0605 84.441 20.1386 85.0266 20.2948L86.1197 20.5681C86.2759 20.6071 86.3735 20.5485 86.4125 20.3924L87.0176 18.2452C87.0762 18.0695 86.9981 17.9719 86.842 17.9328L85.7879 17.6596C85.0071 17.4644 83.953 17.3082 82.9379 17.3082C80.2832 17.3082 78.7216 18.538 78.7216 20.6071C78.7216 22.2273 79.639 23.2423 81.6301 23.6913L83.6211 24.1402Z" fill="black"/>
</svg>
