<svg width="106" height="21" viewBox="0 0 106 21" fill="none" xmlns="http://www.w3.org/2000/svg">
<path fill-rule="evenodd" clip-rule="evenodd" d="M19.2969 10.7623C19.4017 10.9117 19.4987 11.0497 19.5852 11.1759C19.6844 11.3212 19.8306 11.4266 19.9982 11.4892C20.3374 11.5999 20.5815 11.9146 20.5815 12.2879C20.5815 12.8092 20.1055 13.2199 19.5611 13.1132C19.2379 13.0492 18.9764 12.7906 18.9067 12.4706C18.8718 12.3132 18.8826 12.1639 18.9282 12.0292C18.9965 11.8279 18.959 11.6039 18.845 11.4239L18.7223 11.2296C18.4493 10.7974 18.1856 10.3798 17.8903 9.93189C17.7576 9.73055 17.4425 9.81455 17.4277 10.0546C17.3352 11.5012 17.362 12.6866 17.5967 14.2492C17.6208 14.4146 17.7763 14.5279 17.9426 14.5052C18.192 14.4706 18.3797 14.7266 18.2698 14.9519L17.7535 16.0159C17.657 16.2172 17.3848 16.2546 17.2346 16.0879L16.4449 15.2052C16.2772 15.0186 16.3872 14.7212 16.6366 14.6866C16.8015 14.6639 16.9115 14.5106 16.8847 14.3479C16.6876 13.1452 16.6554 11.9412 16.6996 10.7692C16.709 10.5386 16.41 10.4386 16.2786 10.6292C15.6336 11.5679 15.2542 12.3466 15.0155 12.8639C14.5019 13.9812 14.5542 15.1772 14.7205 16.4612C14.7418 16.6236 14.7639 16.7792 14.785 16.9278L14.805 17.0692C14.8304 17.2492 14.9431 17.3999 15.1013 17.4906C15.3547 17.6359 15.5264 17.9092 15.5264 18.2212C15.5264 18.7465 15.0436 19.1586 14.4966 19.0452C14.164 18.9759 13.8999 18.6999 13.8436 18.3666C13.7966 18.0892 13.8865 17.8305 14.0568 17.6479C14.1493 17.5492 14.1935 17.4119 14.1747 17.2772C14.0366 16.2492 13.6907 15.1412 13.3059 14.0879C13.1423 13.6412 12.4866 13.7066 12.4142 14.1772L12.4112 14.1953C12.4042 14.2383 12.3973 14.2806 12.3914 14.3239C12.3338 14.7134 12.2713 15.085 12.2104 15.4477C12.0585 16.3513 11.9159 17.1999 11.8805 18.1332C11.8751 18.2852 11.9958 18.4132 12.15 18.4212C12.3927 18.4332 12.5255 18.7106 12.3807 18.9052L11.67 19.8612C11.5399 20.0359 11.2744 20.0225 11.1618 19.8372L10.5463 18.8172C10.4203 18.6092 10.5785 18.3452 10.8226 18.3572C11.0076 18.3666 11.1605 18.2225 11.1685 18.0399C11.2097 17.1471 11.3465 16.329 11.4921 15.4581C11.5505 15.109 11.6103 14.7515 11.666 14.3772L11.681 14.2756C11.7626 13.723 11.829 13.2732 11.8859 12.7226C11.9127 12.4679 11.5667 12.3639 11.4487 12.5906C11.1718 13.1211 10.8505 13.632 10.5117 14.1708C9.73499 15.406 8.8657 16.7883 8.22528 18.8919C8.21857 18.9105 8.23064 18.9319 8.25075 18.9372C8.413 18.9746 8.51357 19.1359 8.47468 19.2972L8.28025 20.1185C8.24271 20.2799 8.08046 20.3799 7.91822 20.3412L7.09223 20.1479C6.92999 20.1105 6.82942 19.9492 6.86831 19.7879L7.06274 18.9665C7.10028 18.8052 7.26253 18.7052 7.42477 18.7439C7.48511 18.7586 7.54545 18.7212 7.56288 18.6625C8.31034 16.0895 9.17464 14.7508 9.93382 13.575C10.6019 12.5401 11.1886 11.6314 11.5426 10.1186C11.9289 8.46768 11.8617 6.98481 11.7499 4.51581C11.7212 3.88201 11.6896 3.18319 11.6619 2.39989C11.6539 2.16789 11.5426 1.95456 11.3763 1.79056C11.2221 1.63856 11.1269 1.42656 11.1269 1.19322C11.1269 0.667889 11.6097 0.254556 12.1581 0.369222C12.4852 0.437222 12.7454 0.705222 12.8071 1.03189C12.8553 1.28922 12.7856 1.52922 12.6421 1.70922C12.4611 1.93589 12.3887 2.22922 12.3994 2.51856C12.4036 2.63342 12.4069 2.75335 12.4104 2.87765C12.4441 4.08509 12.4893 5.70533 13.3742 7.10389C13.5034 7.30758 13.7369 7.57719 14.0184 7.90218C14.4795 8.43449 15.0694 9.11537 15.5398 9.89855C15.6444 10.0719 15.8964 10.0786 16.0064 9.90655C16.0413 9.85189 16.0761 9.79722 16.1096 9.74255C16.583 8.98122 16.6634 8.03455 16.3094 7.21189C15.9688 6.42255 15.7798 5.69455 15.6524 4.84122C15.6189 4.62122 15.5331 4.40655 15.3789 4.24655C15.234 4.09722 15.1442 3.89455 15.1442 3.66922C15.1442 3.14389 15.6256 2.73189 16.174 2.84522C16.5079 2.91456 16.7707 3.19056 16.827 3.52389C16.8699 3.77322 16.8002 4.00655 16.6621 4.18389C16.4449 4.46255 16.3832 4.83189 16.4676 5.17455C17.0624 7.57922 18.4431 9.54605 19.2969 10.7623ZM14.2579 12.7706C14.3437 12.5546 14.4335 12.3546 14.522 12.1706C14.923 11.3372 14.8613 10.3572 14.345 9.59055C13.9589 9.01722 13.5204 8.39189 13.1919 7.99455C12.9277 7.67455 12.4088 7.89322 12.4571 8.30389C12.5818 9.35722 12.8821 10.7519 13.5807 12.7506C13.6907 13.0639 14.1345 13.0786 14.2579 12.7706Z" fill="#2E3942"/>
<path d="M63.3481 9.18488C62.8922 7.09955 61.1034 6.22888 59.3885 6.22888C57.1921 6.22888 54.9475 7.70088 54.9461 10.6435C54.9461 13.5755 57.1921 15.0342 59.3871 15.0342C60.9908 15.0342 62.6186 14.3475 63.2475 12.5449C63.5318 11.7115 63.5438 10.8902 63.4821 10.0555H59.4126V11.9449H61.2509C60.8446 12.7662 60.2761 12.9875 59.3885 12.9875C58.0677 12.9875 57.2296 12.0675 57.2296 10.6329C57.2296 9.33288 57.9953 8.24088 59.3885 8.24088C60.2278 8.24088 60.7709 8.49821 61.153 9.18488H63.3481Z" fill="#2E3942"/>
<path fill-rule="evenodd" clip-rule="evenodd" d="M38.7429 14.925L39.2364 13.8583H42.4692L42.9747 14.925H45.3052V14.6183L41.3831 6.25297H40.3466L36.387 14.6183V14.925H38.7429ZM41.7532 11.9823H39.9645L40.8535 9.90897L41.7532 11.9823Z" fill="#2E3942"/>
<path d="M34.8101 6.31553H35.6119V14.9262H33.3539V10.9635L31.5169 12.8769H31.2581L29.4198 10.9635V14.9249H27.1631V6.31553H27.9649L31.3936 10.0329L34.8101 6.31553Z" fill="#2E3942"/>
<path d="M87.6515 14.0303C87.6515 13.3436 88.1932 12.9009 88.873 12.9009C89.5636 12.9009 90.0946 13.3423 90.0946 14.0303C90.0946 14.7169 89.5649 15.1463 88.873 15.1463C88.1932 15.1463 87.6515 14.7169 87.6515 14.0303Z" fill="#2E3942"/>
<path d="M48.3503 10.4982V14.9262H46.0937V6.30358H46.7963L51.2989 10.5356V6.33958H53.5556V14.9489H52.8892L48.3503 10.4982Z" fill="#2E3942"/>
<path d="M64.7774 12.0929V6.33958H67.0341V12.0423C67.0341 12.7543 67.663 13.0609 68.3039 13.0609C68.9087 13.0609 69.5496 12.7543 69.5496 12.0423V6.33958H71.7822V12.0916C71.7822 14.0169 70.1047 15.0356 68.2905 15.0356C66.4669 15.0356 64.7774 14.0183 64.7774 12.0929Z" fill="#2E3942"/>
<path d="M75.8141 8.29025H78.9464V6.33958H73.5561V14.9249H79.0577V12.8769H75.8141V11.4796H78.701V9.51692H75.8141V8.29025Z" fill="#2E3942"/>
<path d="M86.7664 6.67158L83.3003 12.9276H86.8026V14.9263H79.9829V14.6076L83.4612 8.29025H80.2913V6.33958H86.7664V6.67158Z" fill="#2E3942"/>
<path fill-rule="evenodd" clip-rule="evenodd" d="M93.153 14.925L93.6465 13.8583H96.8793L97.3848 14.925H99.7153V14.6183L95.7932 6.25297H94.7567L90.7971 14.6183V14.925H93.153ZM96.1633 11.9823H94.3746L95.2636 9.90897L96.1633 11.9823Z" fill="#2E3942"/>
<path d="M105.881 12.9143V14.9263H100.502V6.33958H102.759V12.9143H105.881Z" fill="#2E3942"/>
<path d="M8.75492 9.91318C8.70799 10.0478 8.69994 10.1985 8.73078 10.3612C8.7871 10.6598 8.98689 10.9118 9.27786 11.0065C9.86785 11.1998 10.4122 10.7692 10.4122 10.2105C10.4122 9.81985 10.1079 9.43451 9.64392 9.36918C9.50846 9.35009 9.45568 9.27809 9.43117 9.24466C9.42657 9.23838 9.42296 9.23346 9.42 9.23051C9.20718 9.02236 9.03577 8.59644 8.85412 8.14505C8.75651 7.9025 8.65594 7.6526 8.5444 7.42518C8.12069 6.55984 8.00001 5.58651 8.20516 4.64518C8.34059 4.02784 8.39691 3.35451 8.37143 2.64251C8.36204 2.38251 8.43981 2.12251 8.61279 1.92784C8.77637 1.74518 8.86085 1.49184 8.81258 1.21718C8.75358 0.887844 8.49211 0.615844 8.16225 0.547844C7.61383 0.433177 7.13112 0.846511 7.13112 1.37184C7.13112 1.59851 7.2223 1.80251 7.36845 1.95318C7.52668 2.11584 7.60981 2.33984 7.61652 2.56651C7.68088 4.56384 7.347 5.60784 5.35312 7.61851C5.11712 7.85718 4.71218 7.66784 4.74033 7.33451C4.8047 6.55318 4.73363 5.84918 4.64379 5.05851C4.61429 4.80384 4.70279 4.55718 4.85699 4.35184C4.99242 4.17184 5.05812 3.93718 5.00851 3.68384C4.94549 3.35984 4.68536 3.09584 4.36087 3.02784C3.81245 2.91318 3.32973 3.32651 3.32973 3.85184C3.32973 4.10918 3.44639 4.33851 3.63009 4.49318C3.79636 4.63318 3.89961 4.83451 3.91704 5.05051C4.10208 7.19851 3.96397 8.82918 2.49973 10.6452C1.73017 11.6001 1.4441 12.1939 0.914299 13.2936L0.814247 13.5012C0.768657 13.5958 0.684182 13.6638 0.583616 13.6958C0.23767 13.8078 -0.0103921 14.1345 0.000334929 14.5185C0.0137437 14.9638 0.398575 15.3345 0.846428 15.3358C1.31439 15.3358 1.6952 14.9585 1.6952 14.4932C1.6952 14.3025 1.63084 14.1292 1.52357 13.9892C1.44982 13.8932 1.4391 13.7625 1.48469 13.6505C1.88159 12.6665 2.43537 11.8238 3.09106 10.9812C3.35655 10.6412 3.90497 10.7998 3.94788 11.2292C4.07928 12.5332 4.22946 14.5758 3.98542 17.2038C3.96397 17.4385 3.7615 17.6145 3.5255 17.6038C3.2761 17.5918 3.11251 17.8625 3.24123 18.0758L3.84865 19.0838C3.96397 19.2745 4.23617 19.2878 4.36891 19.1092L5.07153 18.1638C5.22037 17.9638 5.08494 17.6798 4.8342 17.6678C4.63977 17.6585 4.49495 17.4838 4.52579 17.2932C4.89856 14.9545 4.77252 13.0252 4.5982 10.7758C4.57943 10.5292 4.89185 10.4012 5.04874 10.5932C5.25665 10.8477 5.46813 11.046 5.66881 11.2342C6.0958 11.6347 6.47385 11.9892 6.66449 12.7412C6.6779 12.7932 6.63634 12.8452 6.5827 12.8452C6.4057 12.8452 6.26223 12.9878 6.26223 13.1638V13.9705C6.26223 14.1465 6.4057 14.2892 6.5827 14.2892H7.39393C7.57093 14.2892 7.7144 14.1465 7.7144 13.9705V13.1638C7.7144 12.9878 7.57093 12.8452 7.39393 12.8452C7.35773 12.8452 7.32823 12.8185 7.32286 12.7825C7.16984 11.74 6.64057 11.2221 6.10376 10.6968C6.03849 10.6329 5.97306 10.5689 5.90824 10.5038C5.21098 9.80384 5.21903 8.67051 5.91226 7.96518L5.97465 7.90185C6.26595 7.60624 6.53755 7.33062 6.80797 7.01318C7.05737 6.71984 7.53472 6.79184 7.67954 7.14784C7.91267 7.72297 8.2082 8.31925 8.47434 8.85625C8.56791 9.04505 8.65785 9.22653 8.74017 9.39718C8.82062 9.55984 8.81526 9.74251 8.75492 9.91318Z" fill="#2E3942"/>
<path d="M20.5879 12.041C20.5896 12.0433 20.5912 12.0456 20.5924 12.0479C20.5943 12.0509 20.5956 12.0539 20.5968 12.0568C20.5972 12.0577 20.5976 12.0587 20.5981 12.0596L20.5857 12.038C20.5864 12.039 20.5871 12.04 20.5879 12.041Z" fill="#2E3942"/>
<path d="M20.5814 12.0305L20.5857 12.038C20.5841 12.0356 20.5825 12.0332 20.5814 12.0305Z" fill="#2E3942"/>
<path d="M20.602 12.0665C20.6004 12.0644 20.5992 12.0621 20.5981 12.0596L20.602 12.0665Z" fill="#2E3942"/>
</svg>
