<svg width="60" height="60" viewBox="0 0 60 60" fill="none" xmlns="http://www.w3.org/2000/svg">
<path d="M38.333 20.0392L38.2935 16.6871C38.1155 12.104 36.8894 8.94134 34.7338 8.41106C30.7194 7.42627 24.9844 15.9107 21.8993 27.3873C18.8143 38.845 19.5658 48.9392 23.5803 49.924C25.8545 50.4732 28.6627 48.0112 31.2533 43.6743C31.4313 43.3524 32.3217 41.9886 32.4997 41.6666M39.1664 20.8606L41.6664 20.8606C47.8599 20.7065 52.0423 22.0283 52.4997 24.1667C53.2811 27.7113 43.9252 32.0718 30.833 35C17.7409 37.9281 7.44773 37.7113 6.66639 34.1666C6.18996 32.009 9.26353 28.3377 14.9997 25.8333L17.0831 25M24.9997 17.5L21.6664 15C16.8187 11.369 14.3026 10.6591 13.3331 11.6666C11.7362 13.3205 17.2182 21.7273 26.6664 30.8333C36.1145 39.9393 44.6549 45.4166 46.6664 43.3333C47.9164 42.0387 47.0969 40.0932 43.3328 35.4166L41.6662 33.3333M41.6664 29.1666C41.6664 36.0702 36.07 41.6666 29.1664 41.6666C22.2628 41.6666 16.6664 36.0702 16.6664 29.1666C16.6664 22.2631 22.2628 16.6666 29.1664 16.6666C36.07 16.6666 41.6664 22.2631 41.6664 29.1666Z" stroke="#009699" stroke-width="2" stroke-miterlimit="10" stroke-linecap="round" stroke-linejoin="round"/>
</svg>
