<svg width="40" height="40" viewBox="0 0 40 40" fill="none" xmlns="http://www.w3.org/2000/svg">
<path d="M26.4231 10.2428C26.5628 10.383 26.6933 10.5314 26.8138 10.6871C27.1419 11.1111 27.3963 11.5888 27.5649 12.1006L28.3112 14.3952C28.3737 14.572 28.4895 14.7252 28.6427 14.8335C28.7959 14.9418 28.9789 15 29.1666 15C29.3543 15 29.5374 14.9418 29.6906 14.8335C29.8272 14.7369 29.9342 14.6045 30 14.4515C30.0079 14.4331 30.0153 14.4143 30.022 14.3952L30.7683 12.1006C31.0004 11.403 31.3921 10.7691 31.9123 10.2493C32.4325 9.7295 33.0669 9.33809 33.765 9.1062L36.0613 8.36046C36.2383 8.29807 36.3916 8.18236 36.5 8.02927C36.6084 7.87619 36.6666 7.69327 36.6666 7.50573C36.6666 7.3182 36.6084 7.13528 36.5 6.9822C36.3916 6.82911 36.2383 6.7134 36.0613 6.65101L36.0154 6.63954L33.7191 5.8938C33.021 5.66191 32.3866 5.2705 31.8664 4.75069C31.3462 4.23088 30.9545 3.59698 30.7224 2.89939L29.9761 0.604823C29.9136 0.42797 29.7978 0.274825 29.6446 0.166499C29.4914 0.0581725 29.3084 0 29.1207 0C28.933 0 28.75 0.0581725 28.5968 0.166499C28.4436 0.274825 28.3278 0.42797 28.2653 0.604823L27.519 2.89939L27.5 2.9562C27.2704 3.62658 26.8928 4.23706 26.395 4.74229C25.8831 5.26175 25.2579 5.65586 24.5682 5.8938L22.2719 6.63954C22.2488 6.64768 22.2261 6.65674 22.2038 6.66667H22.1903C22.0489 6.73537 21.9263 6.8383 21.8341 6.96665C21.7262 7.11224 21.6678 7.28826 21.667 7.46893C21.6667 7.47736 21.6666 7.48581 21.6666 7.49427C21.6666 7.50656 21.6669 7.51883 21.6674 7.53107C21.6701 7.68883 21.7176 7.84243 21.8041 7.97406C21.8134 7.98889 21.8231 8.00348 21.8333 8.0178C21.9135 8.13116 22.0184 8.22402 22.1393 8.28992C22.1803 8.31301 22.2231 8.33311 22.2674 8.34999L24.5674 9.09999C24.9971 9.24123 25.4028 9.44306 25.7728 9.69826C26.0047 9.85943 26.2224 10.0416 26.4231 10.2428ZM38.3624 16.6077L39.6382 17.022L39.6637 17.0283C39.762 17.063 39.8472 17.1273 39.9074 17.2123C39.9676 17.2974 40 17.399 40 17.5032C40 17.6074 39.9676 17.709 39.9074 17.794C39.8472 17.8791 39.762 17.9434 39.6637 17.978L38.388 18.3923C38.0001 18.5212 37.6477 18.7386 37.3587 19.0274C37.0697 19.3162 36.852 19.6683 36.7231 20.0559L36.3085 21.3307C36.2738 21.4289 36.2095 21.514 36.1244 21.5742C36.0393 21.6344 35.9376 21.6667 35.8333 21.6667C35.729 21.6667 35.6273 21.6344 35.5422 21.5742C35.4571 21.514 35.3928 21.4289 35.3581 21.3307L34.9435 20.0559C34.8154 19.6672 34.5982 19.3137 34.3091 19.0238C34.02 18.7338 33.6672 18.5154 33.2786 18.386L32.0029 17.9717C31.9046 17.937 31.8194 17.8727 31.7592 17.7877C31.699 17.7026 31.6666 17.601 31.6666 17.4968C31.6666 17.3926 31.699 17.291 31.7592 17.206C31.8194 17.1209 31.9046 17.0566 32.0029 17.022L33.2786 16.6077C33.6618 16.4755 34.0091 16.2565 34.2935 15.9679C34.5779 15.6793 34.7916 15.3289 34.918 14.9441L35.3326 13.6693C35.3673 13.5711 35.4316 13.486 35.5167 13.4258C35.6018 13.3657 35.7035 13.3333 35.8078 13.3333C35.912 13.3333 36.0137 13.3657 36.0989 13.4258C36.184 13.486 36.2483 13.5711 36.283 13.6693L36.6976 14.9441C36.8265 15.3317 37.0441 15.6838 37.3332 15.9726C37.6222 16.2614 37.9746 16.4788 38.3624 16.6077ZM28.3333 23.3333V16.5657C28.0797 16.487 27.8381 16.3697 27.6174 16.2167C27.1756 15.8975 26.8436 15.4491 26.6674 14.9333L25.9341 12.6333C25.8236 12.3036 25.6603 11.9941 25.4507 11.7167L25.2007 11.4333C24.8645 11.0972 24.4532 10.8459 24.0007 10.7L21.6674 9.93332C21.171 9.74638 20.7415 9.41561 20.4341 8.98332C20.1318 8.54759 19.9691 8.0303 19.9674 7.49999C19.9682 7.21517 20.0145 6.93399 20.1033 6.66667H10.4166C8.34556 6.66667 6.66663 8.3456 6.66663 10.4167V30.4167C6.66663 32.4877 8.34556 34.1667 10.4166 34.1667H28.75C31.7415 34.1667 34.1666 31.7415 34.1666 28.75V24.1667C34.1666 23.7064 33.7935 23.3333 33.3333 23.3333H28.3333ZM28.75 31.6667H28.3333V25.8333H31.6666V28.75C31.6666 30.3608 30.3608 31.6667 28.75 31.6667ZM11.6666 14.5833C11.6666 13.893 12.2263 13.3333 12.9166 13.3333H22.0833C22.7736 13.3333 23.3333 13.893 23.3333 14.5833C23.3333 15.2737 22.7736 15.8333 22.0833 15.8333H12.9166C12.2263 15.8333 11.6666 15.2737 11.6666 14.5833ZM11.6666 20.4167C11.6666 19.7263 12.2263 19.1667 12.9166 19.1667H22.0833C22.7736 19.1667 23.3333 19.7263 23.3333 20.4167C23.3333 21.107 22.7736 21.6667 22.0833 21.6667H12.9166C12.2263 21.6667 11.6666 21.107 11.6666 20.4167ZM11.6666 26.25C11.6666 25.5596 12.2263 25 12.9166 25H17.0833C17.7736 25 18.3333 25.5596 18.3333 26.25C18.3333 26.9404 17.7736 27.5 17.0833 27.5H12.9166C12.2263 27.5 11.6666 26.9404 11.6666 26.25Z" fill="black" fill-opacity="0.75"/>
</svg>
