<svg style="display:none">
	<symbol fill="currentColor" xmlns="http://www.w3.org/2000/svg" id="receipt_sparkles_16_filled" viewBox="0 0 16 16"><path d="m10.88.28.35 1.07a2.2 2.2 0 0 0 1.4 1.4l1.07.35h.02a.42.42 0 0 1 0 .8l-1.07.35a2.2 2.2 0 0 0-1.4 1.4l-.35 1.07a.42.42 0 0 1-.8 0l-.35-1.07a2.2 2.2 0 0 0-1.4-1.4L7.28 3.9a.42.42 0 0 1 0-.8l1.07-.35a2.2 2.2 0 0 0 1.38-1.4l.35-1.07a.42.42 0 0 1 .8 0Zm4.9 7.93-.76-.25a1.58 1.58 0 0 1-1-1l-.25-.76a.3.3 0 0 0-.57 0l-.25.77a1.58 1.58 0 0 1-.98 1l-.77.24a.3.3 0 0 0 0 .57l.77.25a1.58 1.58 0 0 1 1 1l.24.77a.3.3 0 0 0 .58 0l.24-.77a1.58 1.58 0 0 1 1-1l.77-.24a.3.3 0 0 0 0-.57h-.02ZM13.5 12c-.19 0-.38-.04-.55-.12A1.5 1.5 0 0 1 11.5 13H11v-2h1.23l-.21-.65a.52.52 0 0 0-.14-.22.63.63 0 0 0-.2-.13H11v-.23l-.1-.03c-.28-.1-.5-.26-.66-.48a1.3 1.3 0 0 1-.12-1.3 1.32 1.32 0 0 1-.45-.22 1.51 1.51 0 0 1-.52-.69L8.8 5.96a1.27 1.27 0 0 0-.29-.47v.01A.5.5 0 0 1 8 6H5a.5.5 0 0 1 0-1h2.43l-.46-.15A1.41 1.41 0 0 1 6 3.5a1.4 1.4 0 0 1 .95-1.35L7.43 2H3.75C2.78 2 2 2.78 2 3.75v7.75A2.5 2.5 0 0 0 4.5 14h7a2.5 2.5 0 0 0 2.46-2.07c-.14.05-.3.07-.46.07ZM5 7.5h3a.5.5 0 0 1 0 1H5a.5.5 0 0 1 0-1Zm-.5 3c0-.28.22-.5.5-.5h1.5a.5.5 0 0 1 0 1H5a.5.5 0 0 1-.5-.5Z"/></symbol>
	<symbol fill="currentColor" xmlns="http://www.w3.org/2000/svg" id="receipt_sparkles_16_regular" viewBox="0 0 16 16"><path d="m10.88.28.35 1.07a2.2 2.2 0 0 0 1.4 1.4l1.07.35h.02a.42.42 0 0 1 0 .8l-1.07.35a2.2 2.2 0 0 0-1.4 1.4l-.35 1.07a.42.42 0 0 1-.8 0l-.35-1.07a2.2 2.2 0 0 0-1.4-1.4L7.28 3.9a.42.42 0 0 1 0-.8l1.07-.35a2.2 2.2 0 0 0 1.38-1.4l.35-1.07a.42.42 0 0 1 .8 0Zm4.9 7.93-.76-.25a1.58 1.58 0 0 1-1-1l-.25-.76a.3.3 0 0 0-.57 0l-.25.77a1.58 1.58 0 0 1-.98 1l-.77.24a.3.3 0 0 0 0 .57l.77.25a1.58 1.58 0 0 1 1 1l.24.77a.3.3 0 0 0 .58 0l.24-.77a1.58 1.58 0 0 1 1-1l.77-.24a.3.3 0 0 0 0-.57h-.02ZM13.5 12c-.19 0-.38-.04-.55-.12A1.5 1.5 0 0 1 11.5 13H11v-2h1.23l-.21-.65a.52.52 0 0 0-.14-.22.63.63 0 0 0-.2-.13H11v-.23l-.1-.03c-.28-.1-.5-.26-.66-.48A1.27 1.27 0 0 1 10 8.5V13H4.5A1.5 1.5 0 0 1 3 11.5V3.75c0-.41.34-.75.75-.75h2.34a1.42 1.42 0 0 1 .86-.85L7.43 2H3.75C2.78 2 2 2.78 2 3.75v7.75A2.5 2.5 0 0 0 4.5 14h7a2.5 2.5 0 0 0 2.46-2.07c-.14.05-.3.07-.46.07ZM8.03 5.2l-.6-.2H5a.5.5 0 0 0 0 1h3a.5.5 0 0 0 .5-.5v-.01a1.3 1.3 0 0 0-.47-.3ZM4.5 8c0-.28.22-.5.5-.5h3a.5.5 0 0 1 0 1H5a.5.5 0 0 1-.5-.5Zm.5 2a.5.5 0 0 0 0 1h1.5a.5.5 0 0 0 0-1H5Z"/></symbol>
	<symbol fill="currentColor" xmlns="http://www.w3.org/2000/svg" id="clock_16_filled" viewBox="0 0 16 16"><path d="M8 2a6 6 0 1 1 0 12A6 6 0 0 1 8 2Zm-.5 3a.5.5 0 0 0-.5.5v3c0 .28.23.5.5.5h2a.5.5 0 0 0 0-1H8V5.5a.5.5 0 0 0-.5-.5Z"/></symbol>
	<symbol fill="currentColor" xmlns="http://www.w3.org/2000/svg" id="clock_16_regular" viewBox="0 0 16 16"><path d="M8 2a6 6 0 1 1 0 12A6 6 0 0 1 8 2Zm0 1a5 5 0 1 0 0 10A5 5 0 0 0 8 3Zm-.5 2a.5.5 0 0 1 .5.41V8h1.5a.5.5 0 0 1 .09 1H7.5a.5.5 0 0 1-.49-.41V5.5c0-.28.22-.5.5-.5Z"/></symbol>
	<symbol fill="currentColor" xmlns="http://www.w3.org/2000/svg" id="inprivate_account_16_filled" viewBox="0 0 16 16"><path d="M11.5 8c.83 0 1.5.67 1.5 1.5H8v1h4.96c-.05.34-.16.68-.32 1H8v1h3.93c-.86.88-2.2 1.5-3.93 1.5-3.14 0-5-2.03-5-4v-.5C3 8.67 3.67 8 4.5 8h7Zm-.8-4.25a2.77 2.77 0 0 1 0 1H8v1h2.3a2.75 2.75 0 1 1 0-3H8v1h2.7Z"/></symbol>
	<symbol fill="currentColor" xmlns="http://www.w3.org/2000/svg" id="inprivate_account_16_regular" viewBox="0 0 16 16"><path d="M13 9.5c0-.83-.67-1.5-1.5-1.5h-7C3.67 8 3 8.67 3 9.5v.5c0 1.97 1.86 4 5 4 1.73 0 3.07-.62 3.93-1.5H8v.5c-2.57 0-4-1.56-4-3v-.5c0-.28.22-.5.5-.5H8v.5h5Zm-.36 2H8v-1h4.96c-.05.34-.16.68-.32 1Zm-1.89-7.25c0-.17-.02-.34-.05-.5H8v1h2.7c.03-.16.05-.33.05-.5ZM8 1.5c.97 0 1.81.5 2.3 1.25H8V2.5A1.75 1.75 0 1 0 8 6v-.25h2.3A2.75 2.75 0 1 1 8 1.5Z"/></symbol>
</svg>