<svg width="60" height="60" viewBox="0 0 60 60" fill="none" xmlns="http://www.w3.org/2000/svg">
<g clip-path="url(#clip0_3873_14141)">
<path fill-rule="evenodd" clip-rule="evenodd" d="M31.0777 6.07739C31.4032 5.75195 31.9308 5.75195 32.2562 6.07739L34.167 7.98813L36.0777 6.07739C36.4032 5.75195 36.9308 5.75195 37.2562 6.07739C37.5817 6.40283 37.5817 6.93047 37.2562 7.2559L35.0003 9.51183V11.6666C36.381 11.6666 37.5003 12.7859 37.5003 14.1666V15.0194C38.908 15.1844 40.0003 16.3813 40.0003 17.8333V18.1903C40.0003 19.0365 39.6642 19.848 39.0659 20.4463L38.4953 21.0168C38.3918 21.1203 38.3337 21.2607 38.3337 21.4071C38.3337 25.6926 34.8596 29.1666 30.5741 29.1666H20.8337C20.3734 29.1666 20.0003 29.5397 20.0003 30C20.0003 30.4602 20.3734 30.8333 20.8337 30.8333H39.167C43.3091 30.8333 46.667 34.1912 46.667 38.3333C46.667 42.4754 43.3091 45.8333 39.167 45.8333H27.917C27.6869 45.8333 27.5003 46.0199 27.5003 46.25C27.5003 46.4801 27.6869 46.6666 27.917 46.6666H29.5837C31.6547 46.6666 33.3337 48.3456 33.3337 50.4166C33.3337 52.4877 31.6547 54.1666 29.5837 54.1666H25.8337C25.3734 54.1666 25.0003 53.7936 25.0003 53.3333C25.0003 52.8731 25.3734 52.5 25.8337 52.5H26.5318L27.4596 52.1907C28.0496 51.994 28.5552 51.6105 28.9032 51.1036C28.6309 50.9273 28.3132 50.8333 27.9885 50.8333H27.0837C24.0921 50.8333 21.667 48.4082 21.667 45.4166C21.667 42.4251 24.0921 40 27.0837 40H37.5003C37.9606 40 38.3337 39.6269 38.3337 39.1666C38.3337 38.7064 37.9606 38.3333 37.5003 38.3333H20.0003C15.398 38.3333 11.667 34.6024 11.667 30C11.667 25.3976 15.398 21.6666 20.0003 21.6666H29.4529C29.7362 21.6666 29.9692 21.4515 29.9975 21.1756L29.2681 20.4463C28.6698 19.848 28.3337 19.0365 28.3337 18.1903V17.8333C28.3337 16.3813 29.4259 15.1844 30.8337 15.0194V14.1666C30.8337 12.7859 31.9529 11.6666 33.3337 11.6666V9.51183L31.0777 7.2559C30.7523 6.93047 30.7523 6.40283 31.0777 6.07739ZM33.3337 13.3333C32.8734 13.3333 32.5003 13.7064 32.5003 14.1666V15.3333C32.5003 16.0697 31.9034 16.6666 31.167 16.6666C30.5227 16.6666 30.0003 17.189 30.0003 17.8333V18.1903C30.0003 18.5944 30.1609 18.982 30.4466 19.2677L31.2207 20.0419C31.5065 20.3276 31.667 20.7152 31.667 21.1193C31.667 22.3421 30.6757 23.3333 29.4529 23.3333H20.0003C16.3184 23.3333 13.3337 26.3181 13.3337 30C13.3337 33.6819 16.3184 36.6666 20.0003 36.6666H37.5003C38.881 36.6666 40.0003 37.7859 40.0003 39.1666C40.0003 40.5474 38.881 41.6666 37.5003 41.6666H27.0837C25.0126 41.6666 23.3337 43.3456 23.3337 45.4166C23.3337 47.4877 25.0126 49.1666 27.0837 49.1666H27.9885C28.6498 49.1666 29.2963 49.3624 29.8465 49.7292L30.1785 49.9505C30.6905 50.2919 30.8682 50.961 30.593 51.5114C30.419 51.8594 30.2023 52.1803 29.95 52.4679C30.9259 52.2947 31.667 51.4422 31.667 50.4166C31.667 49.2661 30.7343 48.3333 29.5837 48.3333H27.917C26.7664 48.3333 25.8337 47.4006 25.8337 46.25C25.8337 45.0994 26.7664 44.1666 27.917 44.1666H39.167C42.3887 44.1666 45.0003 41.555 45.0003 38.3333C45.0003 35.1117 42.3887 32.5 39.167 32.5H20.8337C19.4529 32.5 18.3337 31.3807 18.3337 30C18.3337 28.6193 19.4529 27.5 20.8337 27.5H30.5741C33.9391 27.5 36.667 24.7721 36.667 21.4071C36.667 20.8187 36.9007 20.2544 37.3168 19.8383L37.8874 19.2677C38.1731 18.982 38.3337 18.5944 38.3337 18.1903V17.8333C38.3337 17.189 37.8113 16.6666 37.167 16.6666C36.4306 16.6666 35.8337 16.0697 35.8337 15.3333V14.1666C35.8337 13.7064 35.4606 13.3333 35.0003 13.3333H33.3337Z" fill="#009699"/>
</g>
<defs>
<clipPath id="clip0_3873_14141">
<rect width="60" height="60" fill="white"/>
</clipPath>
</defs>
</svg>
